<svg width="61" height="60" viewBox="0 0 61 60" fill="none" xmlns="http://www.w3.org/2000/svg">
<path d="M51.3861 16.4846C51.3876 18.0046 51.1759 19.5175 50.7572 20.9804H55.6787C58.343 20.9804 60.5 23.1084 60.5 25.7339V40.4622C60.5 44.1236 59.4542 47.7109 57.4825 50.8128C55.5107 53.9147 52.6928 56.4056 49.352 58C46.0111 59.5944 42.2824 60.2276 38.5934 59.8272C34.9044 59.4267 31.4045 58.0088 28.4949 55.7359L24.8949 59.2845C24.6863 59.5054 24.4348 59.6825 24.1553 59.8054C23.8758 59.9283 23.5741 59.9943 23.2682 59.9996C22.9622 60.005 22.6583 59.9495 22.3746 59.8364C22.0909 59.7233 21.8332 59.5551 21.6168 59.3416C21.4005 59.1282 21.2299 58.8739 21.1153 58.594C21.0007 58.3141 20.9444 58.0143 20.9498 57.7124C20.9552 57.4106 21.0222 57.113 21.1467 56.8372C21.2713 56.5615 21.4508 56.3133 21.6747 56.1075L25.2716 52.5558C24.063 51.0524 23.0864 49.3808 22.3734 47.5955C19.7248 48.1289 16.989 48.0744 14.3644 47.436C11.7397 46.7975 9.29186 45.5911 7.1981 43.9042C5.10435 42.2172 3.41712 40.092 2.25864 37.6823C1.10017 35.2726 0.499449 32.6389 0.5 29.972V16.5265C0.5 14.0209 2.55975 11.9888 5.09949 11.9888H18.5972C19.5902 8.53646 21.6976 5.49793 24.5996 3.33429C27.5016 1.17065 31.0398 9.30365e-06 34.6772 0H47.0114C49.4266 0 51.3861 1.93319 51.3861 4.31596V16.4846ZM23.1997 12.5343C25.7213 13.1658 28.0771 14.3214 30.1094 15.9238C32.1417 17.5261 33.8037 19.5383 34.9841 21.8256C36.8541 21.2636 38.7983 20.9788 40.7532 20.9804H45.9481C46.5318 19.5515 46.8309 18.0251 46.8291 16.4846V4.49579H34.6772C32.1553 4.49582 29.6959 5.26953 27.6395 6.70977C25.5831 8.15001 24.0315 10.1855 23.1997 12.5343ZM31.7456 52.5289C34.0079 54.1726 36.6881 55.1651 39.488 55.396C42.2879 55.6269 45.0979 55.0871 47.6054 53.8366C50.113 52.5862 52.2199 50.6741 53.6918 48.3129C55.1637 45.9518 55.943 43.2341 55.943 40.4622V25.7339C55.943 25.7001 55.9363 25.6666 55.9231 25.6353C55.91 25.604 55.8908 25.5756 55.8665 25.5517C55.8423 25.5277 55.8134 25.5087 55.7818 25.4958C55.7501 25.4828 55.7161 25.4762 55.6818 25.4762H40.7532C37.9435 25.4762 35.1889 26.245 32.7956 27.6972C30.4023 29.1494 28.4642 31.2279 27.1967 33.7018C25.9292 36.1757 25.3821 38.948 25.6161 41.7103C25.8501 44.4727 26.8561 47.1168 28.5223 49.3488L41.4215 36.6257C41.6301 36.4049 41.8817 36.2277 42.1611 36.1049C42.4406 35.982 42.7424 35.916 43.0483 35.9106C43.3542 35.9053 43.6581 35.9608 43.9418 36.0739C44.2255 36.1869 44.4832 36.3552 44.6996 36.5687C44.916 36.7821 45.0865 37.0364 45.2011 37.3163C45.3157 37.5962 45.372 37.896 45.3666 38.1978C45.3612 38.4997 45.2942 38.7973 45.1697 39.0731C45.0452 39.3488 44.8656 39.597 44.6418 39.8028L31.7456 52.5289ZM21.0063 40.4622C21.0063 38.6878 21.2494 36.9674 21.699 35.3339L13.3203 27.0647C13.0964 26.8589 12.9168 26.6107 12.7923 26.335C12.6678 26.0592 12.6008 25.7616 12.5954 25.4598C12.59 25.1579 12.6463 24.8581 12.7609 24.5782C12.8755 24.2983 13.0461 24.0441 13.2624 23.8306C13.4788 23.6171 13.7365 23.4489 14.0202 23.3358C14.3039 23.2227 14.6078 23.1672 14.9137 23.1725C15.2197 23.1779 15.5214 23.2439 15.8009 23.3668C16.0804 23.4897 16.3319 23.6668 16.5405 23.8877L23.5825 30.8322C25.3062 27.8498 27.7944 25.367 30.7977 23.6329C29.6322 21.4734 27.8933 19.6674 25.7671 18.4082C23.641 17.149 21.2077 16.484 18.7278 16.4846H5.0843L5.06911 16.4966C5.06542 16.5011 5.06235 16.5062 5.06 16.5116L5.05696 16.5265V29.972C5.05669 31.9505 5.49764 33.9048 6.34854 35.6964C7.19943 37.488 8.43944 39.073 9.98063 40.3389C11.5218 41.6048 13.3264 42.5208 15.2665 43.0217C17.2066 43.5226 19.2346 43.5963 21.2068 43.2376C21.0736 42.3183 21.0066 41.3908 21.0063 40.4622Z" fill="#754E29"/>
</svg>
