<svg width="65" height="65" viewBox="0 0 65 65" fill="none" xmlns="http://www.w3.org/2000/svg">
<path d="M29.2633 3.74877C30.2535 3.24665 31.3674 2.98315 32.5 2.98315C33.6326 2.98315 34.7465 3.24665 35.7367 3.74877L60.7867 16.4539C61.306 16.7176 61.7387 17.1033 62.0399 17.5711C62.3412 18.0388 62.5 18.5716 62.5 19.1142V44.1805C62.4997 45.2661 62.1816 46.3319 61.5785 47.2674C60.9754 48.2029 60.1093 48.9742 59.07 49.5012L35.7367 61.3419C34.7465 61.844 33.6326 62.1075 32.5 62.1075C31.3674 62.1075 30.2535 61.844 29.2633 61.3419L5.93 49.5012C4.89118 48.9744 4.02544 48.2037 3.42238 47.2687C2.81932 46.3338 2.50088 45.2687 2.5 44.1836V19.1142C2.49998 18.5716 2.65881 18.0388 2.96005 17.5711C3.26129 17.1033 3.69399 16.7176 4.21333 16.4539L29.2633 3.74877Z" stroke="#754E29" stroke-width="4.16667" stroke-linecap="round" stroke-linejoin="round"/>
<path d="M2.5 17.3254L32.5 32.5448M32.5 32.5448L62.5 17.3254M32.5 32.5448V62.9835" stroke="#754E29" stroke-width="4.16667" stroke-linejoin="round"/>
<path d="M17.5 24.9345L47.5 9.71509M12.5 33.5425L22.5 38.6319" stroke="#754E29" stroke-width="4.16667" stroke-linecap="round" stroke-linejoin="round"/>
</svg>
