<svg width="39" height="56" viewBox="0 0 39 56" fill="none" xmlns="http://www.w3.org/2000/svg">
<path d="M24.5491 0.687979C24.1815 1.07771 23.3102 1.90302 22.6148 2.53729C20.2968 4.63113 19.8253 5.38003 19.7613 7.09179C19.7134 8.48259 20.0491 9.53716 20.9203 10.7369C21.1521 11.0579 21.3439 11.3024 21.3439 11.2718C21.3439 11.2489 21.2001 10.9509 21.0242 10.6146C20.3528 9.33083 20.153 7.77191 20.5206 6.66385C20.8643 5.62457 21.3679 4.99794 23.0704 3.49251C23.4301 3.1792 23.8697 2.74362 24.0536 2.53729L24.3973 2.1552L24.3493 3.75997C24.3253 4.82218 24.2694 5.55579 24.1815 5.93788C23.8857 7.22934 23.3102 8.25334 22.2631 9.37668C21.5038 10.1943 21.288 10.6605 21.4958 11.0426C21.5278 11.1114 21.5837 11.4018 21.6157 11.6769L21.6636 12.1812L21.208 12.4716C19.6654 13.4497 18.5783 14.8635 18.1387 16.4682C18.0188 16.8962 17.9709 17.3088 17.9709 17.9737C17.9629 19.3874 18.2346 20.5642 18.922 22.0467L19.2817 22.8262L19.1538 23.4375C19.026 24.0565 18.986 25.8982 19.0979 26.3796C19.1379 26.5707 19.1858 26.6089 19.3856 26.6089H19.6254L19.6814 25.6231C19.8892 22.1079 21.1041 20.0675 23.9576 18.4398C26.1557 17.1866 26.8032 16.4835 28.2659 13.7631C29.4169 11.6004 29.7846 11.0273 30.6718 9.93453L31.1753 9.31555L30.464 9.60593C29.313 10.0797 27.6584 10.5535 25.6602 10.9815C23.7418 11.3865 22.8706 11.6234 22.2072 11.9443C21.9994 12.0437 21.8075 12.1277 21.7835 12.1277C21.7596 12.1277 21.7516 11.822 21.7756 11.44C21.8155 10.6223 21.8235 10.607 23.0624 9.36904C23.7338 8.7042 24.0136 8.35268 24.2454 7.9171C24.7569 6.94659 24.7969 6.66385 24.741 4.79161C24.685 3.034 24.7809 1.88774 25.1006 0.611562C25.1806 0.282965 25.2445 0.00786015 25.2365 0.000218369C25.2285 -0.00742341 24.9168 0.30589 24.5491 0.687979ZM28.2339 12.6703C26.6273 15.4977 25.5083 16.6975 22.9425 18.3558C22.439 18.6844 21.8475 19.097 21.6317 19.2651C20.8404 19.8918 19.9372 21.1297 19.5935 22.0544C19.5135 22.276 19.4256 22.4288 19.4016 22.3906C19.2737 22.1996 18.93 20.6407 18.8501 19.9147C18.5863 17.5075 19.5215 15.3984 21.4878 13.9847C22.6148 13.167 23.6379 12.7926 25.7001 12.4334C26.5794 12.2806 27.9781 11.8908 28.5776 11.6386C28.7135 11.5852 28.8254 11.5469 28.8414 11.5546C28.8494 11.5622 28.5776 12.0666 28.2339 12.6703Z" fill="#151618"/>
<path d="M10.485 2.59639C10.9617 4.31817 11.1047 6.57561 10.8743 8.68766C10.5883 11.3201 10.8266 12.1159 12.5268 14.2815C12.9876 14.8631 13.5041 15.6207 13.6868 15.9574C14.2032 16.9598 14.4813 18.3832 14.4892 20.0973V20.809L14.2985 20.7324C13.8536 20.5717 13.0512 20.5029 11.0332 20.4646C9.85734 20.4417 8.64177 20.3881 8.33192 20.3575C8.03001 20.3192 7.76783 20.3039 7.75988 20.3116C7.74399 20.3192 7.90289 20.4417 8.11741 20.5871C9.01518 21.2069 9.9209 22.0104 10.9696 23.12C11.5893 23.7704 12.3282 24.4897 12.6222 24.7117C13.8775 25.6682 15.3155 26.2268 17.0554 26.4258C17.7705 26.51 17.4845 26.2498 16.2768 25.7447C14.3542 24.9336 13.3928 24.2755 11.9151 22.768C11.3589 22.2017 10.6836 21.5972 10.4214 21.4212L9.94474 21.1151H10.8822C13.3452 21.1151 14.7355 21.5742 15.9193 22.7756C16.5072 23.3649 16.9283 24.0995 17.1428 24.8877C17.2064 25.1402 17.2779 25.3621 17.3017 25.3851C17.3812 25.4539 17.3573 24.4821 17.2699 23.9464C17.0872 22.8368 16.1656 21.6125 15.1089 21.0768L14.6481 20.8472V19.5846C14.6481 17.0746 14.4177 16.2099 13.2101 14.2509C11.6132 11.6491 11.351 10.6237 11.3987 7.01945C11.4145 5.90221 11.4384 4.98392 11.4463 4.99158C11.4463 4.99923 11.6132 5.21349 11.8038 5.46602C12.0025 5.71855 12.7096 6.47613 13.3849 7.14954C15.0215 8.77949 15.6492 9.72072 16.0385 11.1364C16.4755 12.6898 16.1179 14.8631 15.0851 16.9598C14.8944 17.3501 14.7514 17.6715 14.7594 17.6715C14.7752 17.6715 14.9103 17.4879 15.0692 17.2583C16.3166 15.4523 16.9442 13.4168 16.8489 11.5114C16.7933 10.4707 16.5787 9.65951 16.1259 8.75653C15.6651 7.82294 15.1328 7.16484 13.5915 5.62672C12.3918 4.4253 11.5655 3.53763 10.6995 2.55813L10.3658 2.17551L10.485 2.59639Z" fill="#151618"/>
<path d="M24.8116 21.3524C22.9866 21.7252 21.746 23.277 21.738 25.1788C21.738 25.5591 21.722 25.5896 21.4899 25.6656C21.0737 25.8026 21.3778 25.871 22.6665 25.9243C24.5074 26.0004 25.636 25.795 26.5965 25.2016C26.8606 25.0419 27.525 24.5322 28.0773 24.0682C29.1978 23.1401 29.7741 22.7445 30.7186 22.2653L31.351 21.9458L30.5826 21.8925C30.1663 21.8697 29.422 21.7708 28.9257 21.6871C28.4295 21.6035 27.645 21.4665 27.1808 21.3905C26.2043 21.2231 25.4999 21.2079 24.8116 21.3524ZM27.4529 22.3033C27.8452 22.3946 28.4535 22.4935 28.7896 22.5163L29.414 22.5696L28.5415 23.239C27.2128 24.2583 26.3324 24.7224 25.2038 24.9962C24.6275 25.1408 22.0502 25.5135 21.9941 25.4603C21.9221 25.3918 22.1542 24.6843 22.4344 24.129C22.9226 23.1629 23.8431 22.4707 25.0037 22.1892C25.596 22.0447 26.5245 22.0903 27.4529 22.3033Z" fill="#151618"/>
<path d="M6.95586 29.6749C6.85971 33.8076 7.08407 35.2057 8.16581 37.2874C8.73473 38.3782 9.65622 39.6534 10.3133 40.2526C10.4735 40.3985 10.6017 40.5368 10.6017 40.5598C10.6017 40.5906 8.60652 40.5983 6.17861 40.5829C3.74268 40.5675 1.66733 40.5829 1.56316 40.6059C1.46701 40.629 1.3388 40.7365 1.29072 40.8364C1.21861 40.9977 1.22662 41.0515 1.34681 41.1821C1.49105 41.3357 1.57919 41.3357 19.432 41.3357C31.6517 41.3357 37.421 41.3126 37.5332 41.2589C37.7415 41.1513 37.7415 40.7519 37.5332 40.6443C37.429 40.5983 35.7784 40.5675 32.7174 40.5675H28.0619L28.5507 40.0068C29.9449 38.432 30.8504 36.7036 31.4434 34.499C31.6116 33.8921 31.6277 33.631 31.6517 30.5583L31.6918 27.2782H19.3519H7.01195L6.95586 29.6749Z" fill="#151618"/>
<path d="M3.63016 42.3758C6.33772 43.5977 10.5112 44.5934 14.4044 44.9479C15.0933 45.0158 15.4057 45.0686 15.2855 45.0988C15.1173 45.144 15.1093 45.1516 15.2455 45.1591C15.3336 45.1667 15.8783 45.2044 16.447 45.2496C19.3789 45.4533 25.6592 45.3326 25.483 45.0686C25.4589 45.0309 25.4669 45.0158 25.515 45.0384C25.555 45.0611 25.6992 45.0535 25.8274 45.0158C26.0517 44.9555 26.0517 44.9555 25.7393 44.9404C25.547 44.9328 25.9556 44.8423 26.7406 44.7141C29.1838 44.3219 31.1945 43.8467 32.8447 43.2734C33.7899 42.9415 35.6243 42.1872 35.7525 42.0665C35.7925 42.0288 29.5363 41.9987 19.3308 42.0062L2.8291 42.0137L3.63016 42.3758Z" fill="#151618"/>
<path d="M3.2373 53.5049H3.125C3.12174 53.5049 3.11198 53.5065 3.0957 53.5098C3.08268 53.513 3.06803 53.5179 3.05176 53.5244C3.03548 53.5277 3.01921 53.5309 3.00293 53.5342C2.98665 53.5374 2.97689 53.5391 2.97363 53.5391C2.80762 53.5553 2.63997 53.5651 2.4707 53.5684C2.30143 53.5749 2.13216 53.5781 1.96289 53.5781C1.92708 53.5781 1.88151 53.5765 1.82617 53.5732C1.77409 53.5732 1.72363 53.5667 1.6748 53.5537C1.62598 53.5374 1.58366 53.5146 1.54785 53.4854C1.51204 53.4561 1.49414 53.4137 1.49414 53.3584C1.49414 53.3161 1.50391 53.2738 1.52344 53.2314C1.54297 53.1891 1.57064 53.1598 1.60645 53.1436C1.639 53.1403 1.69596 53.137 1.77734 53.1338C1.85872 53.1305 1.94336 53.1273 2.03125 53.124C2.1224 53.1175 2.20866 53.1126 2.29004 53.1094C2.37142 53.1029 2.42839 53.0964 2.46094 53.0898C2.48047 53.0898 2.50651 53.0898 2.53906 53.0898C2.57161 53.0866 2.60417 53.0817 2.63672 53.0752C2.67253 53.0654 2.70345 53.054 2.72949 53.041C2.75879 53.028 2.78158 53.0101 2.79785 52.9873C2.83691 52.9059 2.85645 52.8197 2.85645 52.7285V52.5771V52.1865C2.85645 52.1768 2.85807 52.154 2.86133 52.1182C2.86784 52.0824 2.87272 52.0433 2.87598 52.001C2.88249 51.9587 2.889 51.918 2.89551 51.8789C2.90202 51.8398 2.90527 51.8154 2.90527 51.8057C2.92155 51.4671 2.93132 51.127 2.93457 50.7852C2.93783 50.4434 2.93945 50.1032 2.93945 49.7646C2.93945 49.6214 2.93783 49.4814 2.93457 49.3447C2.93132 49.208 2.92969 49.0713 2.92969 48.9346C2.92969 48.8857 2.92969 48.806 2.92969 48.6953C2.93294 48.5814 2.93457 48.4642 2.93457 48.3438C2.93457 48.2201 2.93457 48.1045 2.93457 47.9971C2.93783 47.8864 2.93945 47.8099 2.93945 47.7676C2.92318 47.7025 2.90039 47.6488 2.87109 47.6064C2.84505 47.5609 2.80924 47.5169 2.76367 47.4746C2.7474 47.4714 2.7181 47.4681 2.67578 47.4648C2.63672 47.4583 2.5944 47.4535 2.54883 47.4502C2.50651 47.4437 2.46419 47.4388 2.42188 47.4355C2.38281 47.4323 2.35514 47.4307 2.33887 47.4307C2.33236 47.4307 2.31608 47.4339 2.29004 47.4404C2.26725 47.4437 2.24121 47.4486 2.21191 47.4551C2.18587 47.4583 2.15983 47.4632 2.13379 47.4697C2.10775 47.473 2.09147 47.4746 2.08496 47.4746C2.06543 47.4779 2.02474 47.4795 1.96289 47.4795C1.9043 47.4795 1.84082 47.4795 1.77246 47.4795C1.70736 47.4795 1.64551 47.4795 1.58691 47.4795C1.52832 47.4795 1.486 47.4779 1.45996 47.4746C1.41113 47.4941 1.35742 47.5088 1.29883 47.5186C1.24023 47.5251 1.1849 47.5462 1.13281 47.582C1.13281 47.5885 1.12305 47.6016 1.10352 47.6211C1.08398 47.6406 1.07096 47.6536 1.06445 47.6602C1.03841 47.6895 1.0026 47.7301 0.957031 47.7822C0.914714 47.8311 0.872396 47.8815 0.830078 47.9336C0.78776 47.9857 0.748698 48.0312 0.712891 48.0703C0.680339 48.1094 0.662435 48.1305 0.65918 48.1338C0.636393 48.1631 0.613607 48.2038 0.59082 48.2559C0.571289 48.3047 0.548503 48.3535 0.522461 48.4023C0.496419 48.4479 0.465495 48.4886 0.429688 48.5244C0.39388 48.5602 0.349935 48.5781 0.297852 48.5781C0.258789 48.5781 0.23112 48.5684 0.214844 48.5488C0.198568 48.526 0.185547 48.5 0.175781 48.4707C0.175781 48.4609 0.175781 48.4463 0.175781 48.4268C0.175781 48.404 0.174154 48.3812 0.170898 48.3584C0.170898 48.3324 0.170898 48.3079 0.170898 48.2852C0.170898 48.2591 0.170898 48.2412 0.170898 48.2314C0.170898 48.2217 0.170898 48.207 0.170898 48.1875C0.170898 48.1647 0.170898 48.1436 0.170898 48.124C0.174154 48.1012 0.175781 48.0817 0.175781 48.0654C0.175781 48.0459 0.175781 48.0345 0.175781 48.0312C0.179036 48.0215 0.185547 47.9971 0.195312 47.958C0.208333 47.9157 0.221354 47.8717 0.234375 47.8262C0.247396 47.7806 0.258789 47.7383 0.268555 47.6992C0.281576 47.6602 0.291341 47.6357 0.297852 47.626C0.297852 47.6162 0.301107 47.5951 0.307617 47.5625C0.314128 47.5299 0.320638 47.4958 0.327148 47.46C0.336914 47.4209 0.345052 47.3867 0.351562 47.3574C0.358073 47.3249 0.362956 47.3037 0.366211 47.2939C0.366211 47.2874 0.371094 47.2695 0.380859 47.2402C0.39388 47.2109 0.406901 47.1784 0.419922 47.1426C0.432943 47.1068 0.444336 47.0742 0.454102 47.0449C0.467122 47.0156 0.473633 46.9977 0.473633 46.9912C0.483398 46.9652 0.493164 46.9359 0.50293 46.9033C0.515951 46.8675 0.530599 46.835 0.546875 46.8057C0.566406 46.7764 0.589193 46.752 0.615234 46.7324C0.641276 46.7096 0.672201 46.6982 0.708008 46.6982C0.763346 46.6982 0.807292 46.7129 0.839844 46.7422C0.875651 46.7715 0.908203 46.804 0.9375 46.8398C0.966797 46.8757 0.996094 46.9131 1.02539 46.9521C1.05469 46.988 1.09049 47.0124 1.13281 47.0254C1.20117 47.0254 1.27279 47.0238 1.34766 47.0205C1.42253 47.0173 1.4974 47.0156 1.57227 47.0156C1.71224 47.0156 1.85059 47.0189 1.9873 47.0254C2.12402 47.0319 2.25911 47.0465 2.39258 47.0693C2.39258 47.0693 2.39909 47.0726 2.41211 47.0791C2.42513 47.0824 2.43815 47.0872 2.45117 47.0938C2.46745 47.097 2.4821 47.1003 2.49512 47.1035C2.51139 47.1068 2.52116 47.1084 2.52441 47.1084H2.68066C2.7653 47.1084 2.8418 47.1003 2.91016 47.084C2.98177 47.0677 3.06152 47.0596 3.14941 47.0596C3.16243 47.0596 3.18034 47.0596 3.20312 47.0596C3.22917 47.0596 3.25521 47.0596 3.28125 47.0596C3.30729 47.0596 3.33008 47.0612 3.34961 47.0645C3.36914 47.0645 3.38216 47.0661 3.38867 47.0693C3.40169 47.0693 3.42773 47.0726 3.4668 47.0791C3.50911 47.0824 3.55469 47.0872 3.60352 47.0938C3.65234 47.097 3.69629 47.1003 3.73535 47.1035C3.77767 47.1068 3.80534 47.1084 3.81836 47.1084C3.8444 47.0986 3.87533 47.0905 3.91113 47.084C3.9502 47.0775 4.00065 47.0726 4.0625 47.0693C4.1276 47.0661 4.20898 47.0645 4.30664 47.0645C4.4043 47.0612 4.52637 47.0596 4.67285 47.0596L5.55664 47.0693C5.61198 47.0693 5.66895 47.0514 5.72754 47.0156C5.78613 46.9766 5.84473 46.9326 5.90332 46.8838C5.96191 46.8317 6.01888 46.7812 6.07422 46.7324C6.13281 46.6836 6.18978 46.6494 6.24512 46.6299H6.30371C6.39811 46.6299 6.46484 46.6803 6.50391 46.7812C6.50716 46.8203 6.51367 46.8936 6.52344 47.001C6.5332 47.1051 6.54297 47.2158 6.55273 47.333C6.56576 47.4502 6.57878 47.5609 6.5918 47.665C6.60482 47.7692 6.61458 47.8424 6.62109 47.8848C6.62109 47.8913 6.62272 47.9027 6.62598 47.9189C6.62923 47.9352 6.63249 47.9548 6.63574 47.9775C6.64225 47.9971 6.64714 48.0166 6.65039 48.0361C6.65365 48.0524 6.65527 48.0622 6.65527 48.0654V48.1387C6.65527 48.2233 6.65202 48.2998 6.64551 48.3682C6.639 48.4365 6.63086 48.5146 6.62109 48.6025C6.60807 48.6286 6.5918 48.6465 6.57227 48.6562C6.55599 48.6628 6.53971 48.666 6.52344 48.666C6.51367 48.666 6.50391 48.6611 6.49414 48.6514C6.48438 48.6481 6.47624 48.6432 6.46973 48.6367C6.4209 48.6139 6.37858 48.5814 6.34277 48.5391C6.31022 48.4967 6.28092 48.4512 6.25488 48.4023C6.2321 48.3535 6.21094 48.3031 6.19141 48.251C6.17188 48.1956 6.15234 48.1452 6.13281 48.0996C6.07747 47.9596 5.98633 47.8473 5.85938 47.7627C5.73568 47.6781 5.6071 47.6064 5.47363 47.5479C5.389 47.512 5.30599 47.4941 5.22461 47.4941C5.14323 47.4941 5.05534 47.4876 4.96094 47.4746C4.95443 47.4746 4.93001 47.4681 4.8877 47.4551C4.84863 47.4388 4.82259 47.4307 4.80957 47.4307H4.58984H4.34082C4.31478 47.4307 4.27734 47.4372 4.22852 47.4502C4.17969 47.46 4.15365 47.4681 4.15039 47.4746C4.14062 47.4876 4.12923 47.5007 4.11621 47.5137C4.09342 47.543 4.07878 47.5658 4.07227 47.582C4.05924 47.6048 4.0446 47.6357 4.02832 47.6748C4.01204 47.7106 4.00391 47.7301 4.00391 47.7334C4.00065 47.7432 3.9974 47.7611 3.99414 47.7871C3.99089 47.8099 3.98763 47.8343 3.98438 47.8604C3.98438 47.8864 3.98275 47.9124 3.97949 47.9385C3.97624 47.9613 3.97298 47.9775 3.96973 47.9873C3.96973 48.0394 3.97135 48.1289 3.97461 48.2559C3.97786 48.3828 3.97949 48.5195 3.97949 48.666C3.97949 48.8125 3.97786 48.9508 3.97461 49.0811C3.97135 49.208 3.96973 49.2943 3.96973 49.3398C3.96973 49.5059 3.95671 49.6686 3.93066 49.8281C3.90788 49.9844 3.89648 50.1455 3.89648 50.3115C3.89648 50.4906 3.90137 50.6696 3.91113 50.8486C3.92415 51.0244 3.93066 51.2051 3.93066 51.3906C3.93066 51.6152 3.92415 51.8415 3.91113 52.0693C3.90137 52.2972 3.89648 52.5251 3.89648 52.7529C3.89648 52.8213 3.91113 52.875 3.94043 52.9141C3.97298 52.9531 4.01367 52.9824 4.0625 53.002C4.11133 53.0215 4.16504 53.0345 4.22363 53.041C4.28548 53.0475 4.34408 53.0524 4.39941 53.0557C4.42546 53.0589 4.46615 53.0622 4.52148 53.0654C4.58008 53.0687 4.6403 53.0719 4.70215 53.0752C4.76725 53.0785 4.82747 53.0817 4.88281 53.085C4.93815 53.0882 4.97721 53.0898 5 53.0898C5.06185 53.1126 5.10742 53.1484 5.13672 53.1973C5.16927 53.2461 5.18555 53.2998 5.18555 53.3584C5.18555 53.4333 5.16439 53.4919 5.12207 53.5342C5.07975 53.5732 5.02604 53.6139 4.96094 53.6562H4.95117C4.83073 53.6562 4.71842 53.6465 4.61426 53.627C4.51335 53.6107 4.40592 53.5944 4.29199 53.5781C3.94368 53.5293 3.59212 53.5049 3.2373 53.5049ZM7.04102 53.5635C7.04102 53.5505 7.03125 53.5326 7.01172 53.5098C6.99544 53.4837 6.98568 53.4626 6.98242 53.4463V53.4268V53.4219C6.98893 53.4089 7.00358 53.3893 7.02637 53.3633C7.04915 53.3372 7.07357 53.3112 7.09961 53.2852C7.12891 53.2559 7.15495 53.2298 7.17773 53.207C7.20378 53.1842 7.22168 53.168 7.23145 53.1582C7.23796 53.1517 7.25911 53.1452 7.29492 53.1387C7.33398 53.1289 7.36165 53.124 7.37793 53.124H7.72461C7.73438 53.124 7.7474 53.1224 7.76367 53.1191C7.7832 53.1126 7.80111 53.1077 7.81738 53.1045C7.83691 53.098 7.85319 53.0915 7.86621 53.085C7.88249 53.0785 7.89062 53.0752 7.89062 53.0752C7.9362 53.0524 7.96224 53.0166 7.96875 52.9678C7.97852 52.9157 7.9834 52.8669 7.9834 52.8213V52.7432C7.9834 52.6292 7.98014 52.5218 7.97363 52.4209C7.97038 52.3167 7.96875 52.2077 7.96875 52.0938V52.0596C7.96875 52.0498 7.97038 52.0319 7.97363 52.0059C7.97689 51.9798 7.98014 51.9521 7.9834 51.9229C7.98991 51.8903 7.99642 51.861 8.00293 51.835C8.00944 51.8089 8.01432 51.791 8.01758 51.7812V49.6523C8.01758 49.5872 8.00618 49.5352 7.9834 49.4961C7.96061 49.457 7.93132 49.4277 7.89551 49.4082C7.8597 49.3854 7.81738 49.3708 7.76855 49.3643C7.72298 49.3577 7.67415 49.3545 7.62207 49.3545H7.42188C7.33073 49.3545 7.25423 49.3431 7.19238 49.3203C7.13053 49.2975 7.09961 49.2422 7.09961 49.1543C7.09961 49.125 7.09961 49.099 7.09961 49.0762C7.10286 49.0534 7.111 49.0225 7.12402 48.9834C7.28027 48.9899 7.43327 48.985 7.58301 48.9688C7.73275 48.9525 7.88411 48.9443 8.03711 48.9443H8.16406C8.17708 48.9476 8.20312 48.9508 8.24219 48.9541C8.28451 48.9574 8.32682 48.9606 8.36914 48.9639C8.41471 48.9671 8.45703 48.9704 8.49609 48.9736C8.53516 48.9769 8.56283 48.9801 8.5791 48.9834H10.874C10.9717 48.9834 11.0417 49.0094 11.084 49.0615C11.1263 49.1104 11.1572 49.1722 11.1768 49.2471V49.5254V49.8135C11.1768 49.833 11.1735 49.8688 11.167 49.9209C11.1605 49.9697 11.1523 50.0234 11.1426 50.082C11.1361 50.1374 11.1279 50.1927 11.1182 50.248C11.1117 50.3001 11.1068 50.3376 11.1035 50.3604C11.097 50.3701 11.0856 50.3848 11.0693 50.4043C11.0531 50.4206 11.0417 50.4287 11.0352 50.4287C11.0352 50.4352 11.0319 50.4385 11.0254 50.4385H11.0205H11.0059C10.9961 50.4385 10.9912 50.4352 10.9912 50.4287C10.9359 50.3896 10.8936 50.3457 10.8643 50.2969C10.835 50.2448 10.8105 50.1911 10.791 50.1357C10.7715 50.0804 10.7536 50.0251 10.7373 49.9697C10.721 49.9144 10.6966 49.8623 10.6641 49.8135C10.6576 49.8005 10.6364 49.7793 10.6006 49.75C10.568 49.7174 10.5501 49.6995 10.5469 49.6963C10.5404 49.6898 10.5257 49.6719 10.5029 49.6426C10.4834 49.6133 10.4606 49.5824 10.4346 49.5498C10.4118 49.514 10.389 49.4814 10.3662 49.4521C10.3467 49.4229 10.3337 49.4049 10.3271 49.3984C10.3141 49.3691 10.2995 49.3545 10.2832 49.3545C10.2799 49.3545 10.2686 49.3529 10.249 49.3496C10.2327 49.3464 10.2132 49.3431 10.1904 49.3398C10.1709 49.3333 10.1514 49.3285 10.1318 49.3252C10.1156 49.3219 10.1074 49.3187 10.1074 49.3154C10.0977 49.3154 10.0798 49.3122 10.0537 49.3057C10.0277 49.2992 9.99837 49.2926 9.96582 49.2861C9.93652 49.2796 9.90885 49.2731 9.88281 49.2666C9.85677 49.2568 9.84049 49.2503 9.83398 49.2471H9.80957C9.79655 49.2471 9.77865 49.252 9.75586 49.2617C9.73307 49.2682 9.7168 49.2715 9.70703 49.2715H9.69238C9.68262 49.2682 9.65495 49.265 9.60938 49.2617C9.56706 49.2585 9.51986 49.2568 9.46777 49.2568C9.41569 49.2536 9.36686 49.252 9.32129 49.252C9.27897 49.2487 9.25293 49.2471 9.24316 49.2471H9.22852C9.16992 49.2471 9.12109 49.2585 9.08203 49.2812C9.04297 49.304 9.01042 49.3333 8.98438 49.3691C8.96159 49.4049 8.94043 49.4456 8.9209 49.4912C8.90462 49.5335 8.88835 49.5758 8.87207 49.6182C8.86882 49.654 8.8623 49.7126 8.85254 49.7939C8.84603 49.8753 8.83789 49.9616 8.82812 50.0527C8.82161 50.1439 8.8151 50.2301 8.80859 50.3115C8.80208 50.3929 8.79883 50.4499 8.79883 50.4824V50.5215V50.5459C8.79883 50.5622 8.80046 50.5898 8.80371 50.6289C8.80697 50.668 8.81022 50.7103 8.81348 50.7559C8.81673 50.7982 8.81999 50.8405 8.82324 50.8828C8.82975 50.9219 8.83464 50.9479 8.83789 50.9609C8.86068 50.9902 8.88672 51.0195 8.91602 51.0488C8.94857 51.0781 8.98275 51.0977 9.01855 51.1074H9.28711C9.39779 51.1074 9.49382 51.1058 9.5752 51.1025C9.65983 51.0993 9.76074 51.0895 9.87793 51.0732C9.88118 51.0667 9.88607 51.0553 9.89258 51.0391C9.89909 51.0228 9.90723 51.0065 9.91699 50.9902C9.92676 50.974 9.9349 50.9593 9.94141 50.9463C9.94792 50.9333 9.9528 50.9251 9.95605 50.9219C9.96908 50.8991 9.98535 50.8665 10.0049 50.8242C10.0244 50.7786 10.0439 50.7347 10.0635 50.6924C10.083 50.6468 10.0993 50.6077 10.1123 50.5752C10.1286 50.5426 10.1383 50.5247 10.1416 50.5215C10.1481 50.5085 10.1546 50.4808 10.1611 50.4385C10.1676 50.3929 10.1742 50.3669 10.1807 50.3604C10.2067 50.3311 10.2409 50.3115 10.2832 50.3018C10.3255 50.292 10.3678 50.2871 10.4102 50.2871C10.4557 50.2871 10.4834 50.305 10.4932 50.3408C10.5062 50.3734 10.5127 50.4108 10.5127 50.4531V50.5752V50.6338C10.5127 50.6631 10.5094 50.6924 10.5029 50.7217C10.4964 50.7477 10.485 50.7738 10.4688 50.7998C10.4655 50.8291 10.4622 50.8779 10.459 50.9463C10.4557 51.0146 10.4525 51.0863 10.4492 51.1611C10.446 51.236 10.4427 51.3076 10.4395 51.376C10.4362 51.4411 10.4346 51.4867 10.4346 51.5127V51.6396V51.9326C10.4313 51.9391 10.4281 51.9538 10.4248 51.9766C10.4215 51.9993 10.4183 52.0254 10.415 52.0547C10.415 52.0807 10.4134 52.1068 10.4102 52.1328C10.4069 52.1589 10.4036 52.1768 10.4004 52.1865C10.3646 52.2126 10.332 52.2321 10.3027 52.2451C10.2767 52.2581 10.2441 52.2646 10.2051 52.2646C10.179 52.2646 10.1546 52.2549 10.1318 52.2354C10.109 52.2126 10.0879 52.1849 10.0684 52.1523C10.0488 52.1198 10.0326 52.0872 10.0195 52.0547C10.0065 52.0189 9.99837 51.9863 9.99512 51.957C9.99186 51.9473 9.98698 51.9261 9.98047 51.8936C9.97721 51.8577 9.97396 51.8203 9.9707 51.7812C9.96745 51.7389 9.96419 51.6999 9.96094 51.6641C9.95768 51.6283 9.95605 51.6022 9.95605 51.5859C9.94629 51.5729 9.92839 51.5615 9.90234 51.5518C9.87956 51.5387 9.85677 51.5257 9.83398 51.5127C9.81445 51.5062 9.78353 51.498 9.74121 51.4883C9.69889 51.4785 9.65332 51.4704 9.60449 51.4639C9.55892 51.4541 9.51497 51.4476 9.47266 51.4443C9.43359 51.4378 9.40755 51.4346 9.39453 51.4346C9.38477 51.4346 9.36686 51.4346 9.34082 51.4346C9.31803 51.4313 9.29036 51.4297 9.25781 51.4297C9.22852 51.4297 9.19922 51.4297 9.16992 51.4297C9.14062 51.4264 9.11784 51.4248 9.10156 51.4248C9.0918 51.4248 9.07552 51.4264 9.05273 51.4297C9.0332 51.4297 9.01204 51.4297 8.98926 51.4297C8.96973 51.4297 8.95182 51.4313 8.93555 51.4346C8.91927 51.4346 8.90951 51.4346 8.90625 51.4346L8.83789 51.5127V51.6787C8.83789 51.8708 8.83138 52.0563 8.81836 52.2354C8.80534 52.4111 8.79883 52.5951 8.79883 52.7871C8.79883 52.8848 8.80697 52.9564 8.82324 53.002C8.83952 53.0475 8.86556 53.0801 8.90137 53.0996C8.93717 53.1191 8.98275 53.1338 9.03809 53.1436C9.09342 53.1533 9.16178 53.1696 9.24316 53.1924C9.24967 53.1924 9.26107 53.1973 9.27734 53.207C9.29362 53.2168 9.30501 53.2266 9.31152 53.2363H9.69238H10.0537C10.0602 53.2363 10.0749 53.2347 10.0977 53.2314C10.1204 53.2249 10.1449 53.2201 10.1709 53.2168C10.1969 53.2103 10.2197 53.2054 10.2393 53.2021C10.262 53.1956 10.2767 53.1924 10.2832 53.1924H10.5176H10.6104C10.6169 53.1924 10.6283 53.1875 10.6445 53.1777C10.6608 53.1647 10.6771 53.1517 10.6934 53.1387C10.7129 53.1224 10.7292 53.1077 10.7422 53.0947C10.7552 53.0817 10.7633 53.0752 10.7666 53.0752C10.7894 53.0654 10.8073 53.0605 10.8203 53.0605C10.8366 53.0573 10.8496 53.0557 10.8594 53.0557C10.8691 53.0524 10.8789 53.0475 10.8887 53.041C10.8984 53.0312 10.9082 53.0166 10.918 52.9971C10.9538 52.945 10.9798 52.8913 10.9961 52.8359C11.0124 52.7806 11.0335 52.7253 11.0596 52.6699C11.0726 52.6602 11.0889 52.6406 11.1084 52.6113C11.1279 52.5788 11.1393 52.5576 11.1426 52.5479C11.1458 52.5479 11.1556 52.543 11.1719 52.5332C11.1882 52.5202 11.2044 52.5072 11.2207 52.4941C11.237 52.4779 11.2516 52.4632 11.2646 52.4502C11.2777 52.4339 11.2858 52.4225 11.2891 52.416C11.2923 52.4062 11.2988 52.3932 11.3086 52.377C11.3216 52.3574 11.3346 52.3379 11.3477 52.3184C11.3607 52.2956 11.3721 52.276 11.3818 52.2598C11.3949 52.2402 11.403 52.2272 11.4062 52.2207C11.4062 52.2174 11.4111 52.2109 11.4209 52.2012C11.4274 52.1979 11.4339 52.193 11.4404 52.1865C11.4404 52.18 11.4421 52.1768 11.4453 52.1768H11.4551C11.5039 52.1768 11.5332 52.1963 11.543 52.2354C11.5527 52.2712 11.5576 52.3086 11.5576 52.3477V52.4502C11.5576 52.4665 11.5592 52.5055 11.5625 52.5674C11.5658 52.6292 11.5674 52.696 11.5674 52.7676C11.5706 52.8359 11.5739 52.901 11.5771 52.9629C11.5804 53.0247 11.582 53.0622 11.582 53.0752V53.0898C11.582 53.1322 11.5739 53.181 11.5576 53.2363C11.5413 53.2884 11.5186 53.3389 11.4893 53.3877C11.46 53.4365 11.4242 53.4772 11.3818 53.5098C11.3428 53.5423 11.3005 53.5602 11.2549 53.5635C11.2321 53.5602 11.1898 53.557 11.1279 53.5537C11.0693 53.5505 11.0059 53.5472 10.9375 53.5439C10.8691 53.5407 10.804 53.5374 10.7422 53.5342C10.6803 53.5309 10.6364 53.526 10.6104 53.5195H10.5176H10.4346C10.4183 53.526 10.3809 53.5326 10.3223 53.5391C10.2637 53.5423 10.2002 53.5456 10.1318 53.5488C10.0667 53.5521 10.0033 53.5553 9.94141 53.5586C9.88281 53.5618 9.84701 53.5635 9.83398 53.5635H7.9834C7.97363 53.5667 7.95736 53.57 7.93457 53.5732C7.91504 53.5765 7.89225 53.5781 7.86621 53.5781C7.84342 53.5814 7.82064 53.583 7.79785 53.583C7.77507 53.5863 7.75879 53.5879 7.74902 53.5879C7.74902 53.5944 7.73763 53.5977 7.71484 53.5977C7.69206 53.5977 7.6709 53.596 7.65137 53.5928C7.63184 53.5895 7.61882 53.5879 7.6123 53.5879C7.59928 53.5977 7.57324 53.609 7.53418 53.6221C7.49512 53.6351 7.46745 53.6416 7.45117 53.6416C7.4349 53.6416 7.40723 53.6383 7.36816 53.6318C7.33236 53.6253 7.29329 53.6172 7.25098 53.6074C7.20866 53.6009 7.16797 53.5928 7.12891 53.583C7.08984 53.5765 7.06055 53.57 7.04102 53.5635ZM13.4961 51.6299C13.4961 51.6755 13.5173 51.708 13.5596 51.7275C13.6019 51.7471 13.641 51.7568 13.6768 51.7568H13.9355C13.9714 51.7568 14.0072 51.7585 14.043 51.7617C14.0788 51.765 14.1146 51.7666 14.1504 51.7666C14.235 51.7666 14.3083 51.7536 14.3701 51.7275C14.432 51.6982 14.4629 51.6348 14.4629 51.5371V51.4541C14.4336 51.3044 14.3896 51.1562 14.3311 51.0098C14.2725 50.86 14.2171 50.7152 14.165 50.5752C14.1585 50.5524 14.1488 50.528 14.1357 50.502C14.126 50.4727 14.113 50.4466 14.0967 50.4238C14.0804 50.3978 14.0625 50.3766 14.043 50.3604C14.0234 50.3441 14.0023 50.3359 13.9795 50.3359C13.9372 50.3359 13.903 50.3538 13.877 50.3896C13.8542 50.4255 13.8346 50.4678 13.8184 50.5166C13.8053 50.5654 13.7939 50.6159 13.7842 50.668C13.7744 50.7168 13.763 50.7559 13.75 50.7852C13.7402 50.8145 13.7223 50.8665 13.6963 50.9414C13.6735 51.0163 13.6491 51.096 13.623 51.1807C13.597 51.262 13.571 51.3402 13.5449 51.415C13.5221 51.4899 13.5059 51.542 13.4961 51.5713V51.6299ZM12.3584 53.5391H12.334C12.3275 53.5391 12.3112 53.5423 12.2852 53.5488C12.2591 53.5521 12.2298 53.557 12.1973 53.5635C12.1647 53.5667 12.1338 53.57 12.1045 53.5732C12.0785 53.5765 12.0622 53.5781 12.0557 53.5781H12.0264C12.0068 53.5781 11.9906 53.57 11.9775 53.5537C11.9645 53.5374 11.9548 53.5195 11.9482 53.5C11.9417 53.4772 11.9385 53.4561 11.9385 53.4365C11.9352 53.4137 11.9336 53.3991 11.9336 53.3926V53.3779C11.9336 53.3193 11.9531 53.2803 11.9922 53.2607C12.0345 53.2412 12.0752 53.2233 12.1143 53.207C12.1208 53.207 12.137 53.2021 12.1631 53.1924C12.1891 53.1794 12.2168 53.1663 12.2461 53.1533C12.2786 53.1403 12.3079 53.1289 12.334 53.1191C12.36 53.1061 12.3763 53.0964 12.3828 53.0898C12.3861 53.0866 12.3958 53.0785 12.4121 53.0654C12.4284 53.0492 12.4463 53.0312 12.4658 53.0117C12.4854 52.9922 12.5033 52.9727 12.5195 52.9531C12.5391 52.9336 12.5553 52.9173 12.5684 52.9043C12.5716 52.8978 12.5765 52.8896 12.583 52.8799C12.596 52.8604 12.6025 52.8457 12.6025 52.8359C12.6025 52.8294 12.6058 52.8099 12.6123 52.7773C12.6221 52.7448 12.6302 52.7253 12.6367 52.7188C12.7246 52.543 12.8125 52.3656 12.9004 52.1865C12.9883 52.0042 13.0713 51.8219 13.1494 51.6396C13.1592 51.6299 13.1722 51.6022 13.1885 51.5566C13.208 51.5078 13.221 51.4736 13.2275 51.4541C13.2308 51.4476 13.2389 51.4281 13.252 51.3955C13.265 51.3597 13.278 51.3239 13.291 51.2881C13.304 51.249 13.3154 51.2132 13.3252 51.1807C13.3382 51.1481 13.3447 51.1286 13.3447 51.1221C13.348 51.1123 13.3577 51.0895 13.374 51.0537C13.3936 51.0179 13.4131 50.9788 13.4326 50.9365C13.4554 50.8942 13.4749 50.8535 13.4912 50.8145C13.5107 50.7754 13.5238 50.751 13.5303 50.7412C13.5563 50.6826 13.5807 50.6305 13.6035 50.585C13.6296 50.5361 13.654 50.4792 13.6768 50.4141C13.6898 50.388 13.7061 50.3587 13.7256 50.3262C13.7484 50.2936 13.7695 50.2594 13.7891 50.2236C13.8086 50.1846 13.8249 50.1471 13.8379 50.1113C13.8542 50.0755 13.8623 50.0413 13.8623 50.0088V49.9404C13.8623 49.9274 13.8574 49.9062 13.8477 49.877C13.8411 49.8444 13.8379 49.8265 13.8379 49.8232C13.8379 49.8005 13.8509 49.7712 13.877 49.7354C13.903 49.6995 13.9225 49.6768 13.9355 49.667C13.9421 49.6637 13.9567 49.6572 13.9795 49.6475C14.0055 49.6377 14.0316 49.6263 14.0576 49.6133C14.0837 49.6003 14.1064 49.5889 14.126 49.5791C14.1488 49.5693 14.1618 49.5628 14.165 49.5596C14.1715 49.5531 14.1846 49.54 14.2041 49.5205C14.2236 49.501 14.2448 49.4798 14.2676 49.457C14.2936 49.431 14.3164 49.4066 14.3359 49.3838C14.3587 49.3577 14.375 49.3398 14.3848 49.3301C14.388 49.3268 14.3945 49.3171 14.4043 49.3008C14.4141 49.2812 14.4255 49.2633 14.4385 49.2471C14.4515 49.2275 14.4661 49.2113 14.4824 49.1982C14.4987 49.182 14.5166 49.1755 14.5361 49.1787C14.5687 49.1885 14.5964 49.2178 14.6191 49.2666C14.6452 49.3154 14.6663 49.3691 14.6826 49.4277C14.7021 49.4831 14.7184 49.5384 14.7314 49.5938C14.7445 49.6458 14.7559 49.6816 14.7656 49.7012C14.7689 49.7174 14.7738 49.7402 14.7803 49.7695C14.79 49.7988 14.7982 49.8281 14.8047 49.8574C14.8145 49.8867 14.8226 49.9128 14.8291 49.9355C14.8356 49.9583 14.8389 49.9714 14.8389 49.9746C14.8421 49.9844 14.847 50.0072 14.8535 50.043C14.86 50.0788 14.8665 50.1178 14.873 50.1602C14.8828 50.2025 14.891 50.2415 14.8975 50.2773C14.904 50.3099 14.9072 50.3294 14.9072 50.3359C14.9105 50.3457 14.9186 50.3766 14.9316 50.4287C14.9479 50.4808 14.9658 50.541 14.9854 50.6094C15.0049 50.6777 15.0244 50.7461 15.0439 50.8145C15.0635 50.8796 15.0798 50.9316 15.0928 50.9707C15.1188 51.0586 15.1514 51.1465 15.1904 51.2344C15.2295 51.319 15.2588 51.4053 15.2783 51.4932C15.2946 51.568 15.3044 51.6283 15.3076 51.6738C15.3141 51.7161 15.3304 51.7682 15.3564 51.8301C15.3597 51.8366 15.3662 51.8512 15.376 51.874C15.389 51.8936 15.402 51.9163 15.415 51.9424C15.4281 51.9652 15.4395 51.988 15.4492 52.0107C15.459 52.0335 15.4655 52.0498 15.4688 52.0596C15.4688 52.0661 15.4704 52.0775 15.4736 52.0938C15.4769 52.11 15.4801 52.1296 15.4834 52.1523C15.4899 52.1719 15.4948 52.1914 15.498 52.2109C15.5013 52.2272 15.5046 52.2386 15.5078 52.2451C15.5078 52.2484 15.5111 52.2598 15.5176 52.2793C15.5241 52.2956 15.5322 52.3151 15.542 52.3379C15.5518 52.3574 15.5599 52.377 15.5664 52.3965C15.5762 52.4128 15.5827 52.4209 15.5859 52.4209C15.6022 52.5055 15.6234 52.5967 15.6494 52.6943C15.6755 52.792 15.7161 52.8783 15.7715 52.9531C15.7975 52.9922 15.8447 53.0247 15.9131 53.0508C15.9847 53.0768 16.0563 53.1029 16.1279 53.1289C16.2028 53.1549 16.2679 53.1842 16.3232 53.2168C16.3786 53.2493 16.4062 53.2917 16.4062 53.3438C16.4062 53.3991 16.3916 53.443 16.3623 53.4756C16.3363 53.5049 16.3021 53.5277 16.2598 53.5439C16.2174 53.5602 16.1702 53.57 16.1182 53.5732C16.0661 53.5765 16.0173 53.5781 15.9717 53.5781H15.874H15.7715C15.7194 53.5781 15.6283 53.5765 15.498 53.5732C15.3678 53.57 15.2279 53.5667 15.0781 53.5635C14.9316 53.557 14.7917 53.5521 14.6582 53.5488C14.528 53.5423 14.4368 53.5391 14.3848 53.5391C14.349 53.526 14.3278 53.5114 14.3213 53.4951C14.3148 53.4756 14.3115 53.4479 14.3115 53.4121V53.3779C14.3115 53.3714 14.3132 53.3649 14.3164 53.3584C14.3457 53.2965 14.3864 53.2559 14.4385 53.2363C14.4906 53.2135 14.5443 53.1956 14.5996 53.1826C14.6582 53.1696 14.7152 53.1549 14.7705 53.1387C14.8258 53.1191 14.8714 53.0801 14.9072 53.0215L14.917 52.9873L14.9072 52.9531C14.904 52.9238 14.8958 52.8831 14.8828 52.8311C14.873 52.779 14.8617 52.7269 14.8486 52.6748C14.8389 52.6227 14.8291 52.5771 14.8193 52.5381C14.8096 52.4958 14.8031 52.4714 14.7998 52.4648C14.7933 52.4583 14.7835 52.4421 14.7705 52.416C14.7575 52.39 14.7428 52.3607 14.7266 52.3281C14.7135 52.2956 14.6989 52.2646 14.6826 52.2354C14.6696 52.2028 14.6582 52.1784 14.6484 52.1621C14.6126 52.1068 14.5622 52.0742 14.4971 52.0645C14.4352 52.0514 14.3734 52.0449 14.3115 52.0449H14.2139C14.0967 52.0449 13.986 52.0531 13.8818 52.0693C13.7809 52.0856 13.6735 52.0938 13.5596 52.0938C13.5368 52.0938 13.514 52.0921 13.4912 52.0889C13.4684 52.0856 13.4456 52.084 13.4229 52.084C13.4001 52.1068 13.3887 52.1247 13.3887 52.1377C13.3822 52.141 13.374 52.154 13.3643 52.1768C13.3577 52.1963 13.3496 52.2191 13.3398 52.2451C13.3333 52.2679 13.3252 52.2907 13.3154 52.3135C13.3089 52.333 13.3057 52.3444 13.3057 52.3477C13.3057 52.3542 13.2943 52.3737 13.2715 52.4062C13.252 52.4388 13.2373 52.4583 13.2275 52.4648C13.1885 52.5462 13.1657 52.6309 13.1592 52.7188C13.1527 52.8034 13.1494 52.8913 13.1494 52.9824C13.1494 53.0345 13.1657 53.0736 13.1982 53.0996C13.2308 53.1224 13.2715 53.1403 13.3203 53.1533C13.3691 53.1663 13.4212 53.1777 13.4766 53.1875C13.5319 53.194 13.584 53.2054 13.6328 53.2217C13.6816 53.2347 13.7223 53.2559 13.7549 53.2852C13.7874 53.3145 13.8037 53.3568 13.8037 53.4121C13.8037 53.5195 13.7533 53.5863 13.6523 53.6123C13.6393 53.6123 13.6149 53.6107 13.5791 53.6074C13.5465 53.6042 13.5124 53.6009 13.4766 53.5977C13.4408 53.5944 13.4066 53.5911 13.374 53.5879C13.3415 53.5846 13.3187 53.5814 13.3057 53.5781H12.959H12.8223C12.8125 53.5781 12.7865 53.5765 12.7441 53.5732C12.7018 53.57 12.6546 53.5667 12.6025 53.5635C12.5505 53.557 12.5033 53.5521 12.4609 53.5488C12.4186 53.5423 12.3926 53.5391 12.3828 53.5391H12.3584ZM17.3291 53.5635C17.3226 53.5635 17.3031 53.5667 17.2705 53.5732C17.2412 53.583 17.2249 53.5879 17.2217 53.5879H17.2021C17.1598 53.5879 17.1175 53.5863 17.0752 53.583C17.0361 53.5798 17.0003 53.5716 16.9678 53.5586C16.9385 53.5456 16.9141 53.526 16.8945 53.5C16.875 53.474 16.8652 53.4382 16.8652 53.3926V53.3193C16.8685 53.2868 16.9076 53.264 16.9824 53.251C17.0605 53.2347 17.1468 53.2249 17.2412 53.2217C17.3356 53.2152 17.4251 53.2103 17.5098 53.207C17.5944 53.2005 17.6449 53.1875 17.6611 53.168C17.6644 53.1517 17.6676 53.137 17.6709 53.124C17.6742 53.111 17.6774 53.0996 17.6807 53.0898C17.6839 53.0801 17.6855 53.0719 17.6855 53.0654C17.6855 53.0524 17.6872 53.0329 17.6904 53.0068C17.6969 52.9775 17.7018 52.9482 17.7051 52.9189C17.7116 52.8864 17.7165 52.8571 17.7197 52.8311C17.723 52.805 17.7246 52.7871 17.7246 52.7773C17.7246 52.7513 17.7262 52.6976 17.7295 52.6162C17.7327 52.5316 17.736 52.4404 17.7393 52.3428C17.7425 52.2451 17.7458 52.1507 17.749 52.0596C17.7523 51.9684 17.7539 51.9033 17.7539 51.8643C17.7539 51.848 17.7539 51.8187 17.7539 51.7764C17.7572 51.7308 17.7588 51.682 17.7588 51.6299C17.7588 51.5778 17.7572 51.5306 17.7539 51.4883C17.7539 51.446 17.7539 51.4134 17.7539 51.3906L17.7783 51.3271C17.7783 51.3239 17.7799 51.2913 17.7832 51.2295C17.7865 51.1644 17.7897 51.0879 17.793 51C17.7995 50.9121 17.8044 50.8226 17.8076 50.7314C17.8141 50.6403 17.8174 50.5654 17.8174 50.5068V50.1748V49.8281C17.8174 49.8151 17.8141 49.7956 17.8076 49.7695C17.8044 49.7435 17.8011 49.7174 17.7979 49.6914C17.7946 49.6621 17.7897 49.6377 17.7832 49.6182C17.7799 49.5954 17.7783 49.5807 17.7783 49.5742C17.762 49.5254 17.7295 49.4912 17.6807 49.4717C17.6351 49.4489 17.5798 49.4326 17.5146 49.4229C17.4528 49.4131 17.3861 49.4082 17.3145 49.4082C17.2461 49.4049 17.1826 49.3984 17.124 49.3887C17.0654 49.3789 17.0166 49.3626 16.9775 49.3398C16.9417 49.3138 16.9238 49.2747 16.9238 49.2227C16.9238 49.1934 16.9336 49.1673 16.9531 49.1445C16.9727 49.1185 16.9954 49.0957 17.0215 49.0762C17.0475 49.0566 17.0752 49.042 17.1045 49.0322C17.137 49.0192 17.1647 49.0127 17.1875 49.0127C17.2331 49.0127 17.2884 49.0192 17.3535 49.0322C17.4186 49.0452 17.4691 49.0485 17.5049 49.042C17.5146 49.042 17.5342 49.0404 17.5635 49.0371C17.5928 49.0339 17.6237 49.0306 17.6562 49.0273C17.6921 49.0241 17.7246 49.0208 17.7539 49.0176C17.7865 49.0143 17.8076 49.0127 17.8174 49.0127C17.8337 49.0127 17.8711 49.0143 17.9297 49.0176C17.9883 49.0208 18.0501 49.0241 18.1152 49.0273C18.1836 49.0306 18.2471 49.0355 18.3057 49.042C18.3643 49.0452 18.4017 49.0485 18.418 49.0518H18.4766H18.5205C18.527 49.0485 18.5417 49.0452 18.5645 49.042C18.5872 49.0355 18.61 49.0306 18.6328 49.0273C18.6589 49.0241 18.6816 49.0208 18.7012 49.0176C18.724 49.0143 18.737 49.0127 18.7402 49.0127H18.9844C18.9876 49.0127 18.999 49.0111 19.0186 49.0078C19.0381 49.0046 19.0576 49.0013 19.0771 48.998C19.0999 48.9948 19.1195 48.9915 19.1357 48.9883C19.1553 48.985 19.1667 48.9834 19.1699 48.9834H19.1895C19.196 48.9834 19.2008 48.9834 19.2041 48.9834C19.2106 48.9801 19.2171 48.9785 19.2236 48.9785C19.2627 48.9785 19.3018 48.9801 19.3408 48.9834C19.3799 48.9867 19.4157 48.9948 19.4482 49.0078C19.4808 49.0176 19.5068 49.0355 19.5264 49.0615C19.5492 49.0876 19.5605 49.1234 19.5605 49.1689C19.5605 49.1787 19.5573 49.1934 19.5508 49.2129C19.5443 49.2292 19.541 49.2406 19.541 49.2471C19.515 49.2633 19.4743 49.2878 19.4189 49.3203C19.3636 49.3496 19.318 49.3675 19.2822 49.374C19.2692 49.374 19.2399 49.3773 19.1943 49.3838C19.152 49.387 19.1064 49.3919 19.0576 49.3984C19.0088 49.4017 18.9632 49.4066 18.9209 49.4131C18.8786 49.4163 18.8525 49.418 18.8428 49.418C18.8167 49.4212 18.7939 49.4326 18.7744 49.4521C18.7581 49.4684 18.7467 49.4896 18.7402 49.5156C18.7109 49.6621 18.6914 49.807 18.6816 49.9502C18.6751 50.0934 18.6719 50.2399 18.6719 50.3896V50.8584V51.0146C18.6719 51.0179 18.6686 51.0374 18.6621 51.0732C18.6589 51.1058 18.654 51.1432 18.6475 51.1855C18.6442 51.2246 18.6393 51.262 18.6328 51.2979C18.6296 51.3337 18.6279 51.3564 18.6279 51.3662V52.1084V52.3916C18.6279 52.4014 18.6263 52.4225 18.623 52.4551C18.6198 52.4876 18.6165 52.5218 18.6133 52.5576C18.61 52.5934 18.6068 52.626 18.6035 52.6553C18.6003 52.6846 18.5986 52.7025 18.5986 52.709V52.7334V52.7773C18.5986 52.7839 18.6035 52.8018 18.6133 52.8311C18.623 52.8571 18.6279 52.8734 18.6279 52.8799C18.6279 52.8864 18.623 52.8978 18.6133 52.9141C18.6035 52.9271 18.5986 52.9385 18.5986 52.9482C18.5954 52.958 18.5938 52.9678 18.5938 52.9775C18.5905 52.984 18.5889 52.9922 18.5889 53.002C18.5889 53.0085 18.5889 53.015 18.5889 53.0215C18.5889 53.0833 18.6068 53.1419 18.6426 53.1973C18.6816 53.2493 18.7305 53.2754 18.7891 53.2754H18.8184C18.9128 53.2591 19.0104 53.2445 19.1113 53.2314C19.2155 53.2152 19.3148 53.207 19.4092 53.207H20.2344C20.2474 53.207 20.2686 53.2054 20.2979 53.2021C20.3304 53.1989 20.3613 53.1956 20.3906 53.1924C20.4199 53.1891 20.446 53.1859 20.4688 53.1826C20.4915 53.1761 20.5046 53.1712 20.5078 53.168C20.5143 53.1647 20.5273 53.1549 20.5469 53.1387C20.5664 53.1191 20.5876 53.098 20.6104 53.0752C20.6364 53.0492 20.6592 53.0247 20.6787 53.002C20.7015 52.9792 20.7178 52.9613 20.7275 52.9482C20.7275 52.945 20.7308 52.9368 20.7373 52.9238C20.7438 52.9076 20.7503 52.8929 20.7568 52.8799C20.7633 52.8636 20.7699 52.849 20.7764 52.8359C20.7829 52.8229 20.7878 52.8148 20.791 52.8115C20.791 52.8083 20.7959 52.8034 20.8057 52.7969C20.8187 52.7871 20.8317 52.7773 20.8447 52.7676C20.8577 52.7578 20.8691 52.7497 20.8789 52.7432C20.8919 52.7367 20.9001 52.7334 20.9033 52.7334L20.9277 52.709C20.9342 52.7057 20.9473 52.6878 20.9668 52.6553C20.9863 52.6195 20.9961 52.5983 20.9961 52.5918C21.0091 52.5788 21.0254 52.5592 21.0449 52.5332C21.0677 52.5039 21.0905 52.4746 21.1133 52.4453C21.1393 52.4128 21.1621 52.3835 21.1816 52.3574C21.2012 52.3281 21.2158 52.3086 21.2256 52.2988C21.2386 52.2826 21.2467 52.2728 21.25 52.2695C21.2565 52.2663 21.2728 52.2646 21.2988 52.2646C21.3509 52.2646 21.3916 52.2858 21.4209 52.3281C21.4502 52.3672 21.4714 52.4144 21.4844 52.4697C21.4974 52.5251 21.5039 52.582 21.5039 52.6406C21.5072 52.696 21.5088 52.7415 21.5088 52.7773C21.5088 52.7936 21.5088 52.8132 21.5088 52.8359C21.5088 52.8587 21.5088 52.8815 21.5088 52.9043C21.5088 52.9271 21.5072 52.9466 21.5039 52.9629C21.5039 52.9792 21.5039 52.9873 21.5039 52.9873C21.5039 52.9938 21.499 53.0117 21.4893 53.041C21.4795 53.0671 21.4746 53.0833 21.4746 53.0898C21.4681 53.1647 21.4648 53.2298 21.4648 53.2852C21.4648 53.3372 21.4567 53.3828 21.4404 53.4219C21.4274 53.4609 21.4014 53.4935 21.3623 53.5195C21.3265 53.5456 21.2663 53.5684 21.1816 53.5879C21.1523 53.5911 21.0986 53.5928 21.0205 53.5928C20.9424 53.596 20.8577 53.5977 20.7666 53.5977C20.6787 53.5977 20.5941 53.5977 20.5127 53.5977C20.4346 53.5977 20.3792 53.5977 20.3467 53.5977C20.2881 53.5977 20.2132 53.5977 20.1221 53.5977C20.0309 53.5977 19.9414 53.5977 19.8535 53.5977C19.7689 53.5977 19.694 53.596 19.6289 53.5928C19.5638 53.5928 19.5296 53.5911 19.5264 53.5879C19.5101 53.5879 19.4775 53.5863 19.4287 53.583C19.3831 53.583 19.3311 53.5814 19.2725 53.5781C19.2171 53.5781 19.1618 53.5765 19.1064 53.5732C19.0544 53.57 19.0137 53.5667 18.9844 53.5635C18.9811 53.5635 18.9714 53.5618 18.9551 53.5586C18.9388 53.5553 18.9209 53.5521 18.9014 53.5488C18.8818 53.5456 18.8639 53.5423 18.8477 53.5391C18.8314 53.5358 18.8216 53.5326 18.8184 53.5293H18.7891H18.7402C18.724 53.5326 18.6914 53.5358 18.6426 53.5391C18.5938 53.5423 18.5417 53.5456 18.4863 53.5488C18.431 53.5521 18.3773 53.5553 18.3252 53.5586C18.2764 53.5618 18.2454 53.5635 18.2324 53.5635H17.9053C17.8988 53.5635 17.876 53.5667 17.8369 53.5732C17.8011 53.583 17.7816 53.5879 17.7783 53.5879C17.7555 53.6009 17.7279 53.6074 17.6953 53.6074C17.666 53.6107 17.6432 53.6123 17.627 53.6123C17.6172 53.6123 17.5977 53.609 17.5684 53.6025C17.5391 53.5993 17.5065 53.5944 17.4707 53.5879C17.4382 53.5814 17.4072 53.5749 17.3779 53.5684C17.3486 53.5651 17.3324 53.5635 17.3291 53.5635ZM22.4951 49.6963C22.4854 49.6344 22.4723 49.5856 22.4561 49.5498C22.4398 49.5107 22.4186 49.4798 22.3926 49.457C22.3665 49.431 22.334 49.4082 22.2949 49.3887C22.2559 49.3691 22.207 49.3447 22.1484 49.3154C22.1126 49.2992 22.0752 49.2878 22.0361 49.2812C22.0003 49.2715 21.9775 49.2633 21.9678 49.2568C21.9482 49.234 21.9336 49.2031 21.9238 49.1641C21.9141 49.1217 21.9092 49.0908 21.9092 49.0713C21.9092 49.0648 21.9092 49.0518 21.9092 49.0322C21.9124 49.0094 21.9206 48.9932 21.9336 48.9834C21.9401 48.9801 21.958 48.9753 21.9873 48.9688C22.0166 48.9622 22.0394 48.9557 22.0557 48.9492C22.0882 48.946 22.124 48.9427 22.1631 48.9395C22.2054 48.9362 22.2445 48.9346 22.2803 48.9346C22.3356 48.9346 22.3926 48.9395 22.4512 48.9492C22.5098 48.9557 22.5863 48.9671 22.6807 48.9834H22.8662C22.9281 48.9834 22.9867 48.9834 23.042 48.9834C23.0973 48.9834 23.151 48.9818 23.2031 48.9785C23.2552 48.9753 23.3073 48.972 23.3594 48.9688C23.4115 48.9655 23.4684 48.959 23.5303 48.9492C23.54 48.9492 23.5596 48.9443 23.5889 48.9346C23.6182 48.9248 23.6361 48.9199 23.6426 48.9199H23.6768C23.7516 48.9199 23.82 48.9329 23.8818 48.959C23.9469 48.985 23.9795 49.0387 23.9795 49.1201C23.9795 49.1755 23.96 49.2178 23.9209 49.2471C23.8818 49.2764 23.8346 49.3024 23.7793 49.3252C23.7272 49.348 23.6735 49.3708 23.6182 49.3936C23.5661 49.4131 23.5254 49.4408 23.4961 49.4766C23.4635 49.5124 23.4375 49.5563 23.418 49.6084C23.3984 49.6572 23.3822 49.7109 23.3691 49.7695C23.3594 49.8249 23.3529 49.8802 23.3496 49.9355C23.3464 49.9909 23.3447 50.0397 23.3447 50.082C23.3447 50.1341 23.3512 50.1764 23.3643 50.209C23.3805 50.2415 23.3887 50.2806 23.3887 50.3262C23.3887 50.3359 23.387 50.3506 23.3838 50.3701C23.3838 50.3864 23.3789 50.3978 23.3691 50.4043C23.3691 50.4108 23.3675 50.4287 23.3643 50.458C23.361 50.4873 23.3577 50.5199 23.3545 50.5557C23.3545 50.5882 23.3529 50.6191 23.3496 50.6484C23.3464 50.6777 23.3447 50.6973 23.3447 50.707V51.1367C23.3447 51.153 23.3382 51.1807 23.3252 51.2197C23.3154 51.2588 23.3089 51.2848 23.3057 51.2979V51.3516V51.4004C23.3057 51.4069 23.3073 51.4232 23.3105 51.4492C23.3171 51.4753 23.3219 51.5029 23.3252 51.5322C23.3317 51.5615 23.3366 51.5892 23.3398 51.6152C23.3431 51.6413 23.3447 51.6576 23.3447 51.6641C23.348 51.6803 23.3496 51.7096 23.3496 51.752C23.3529 51.791 23.3561 51.8333 23.3594 51.8789C23.3626 51.9212 23.3643 51.9619 23.3643 52.001C23.3675 52.04 23.3691 52.0677 23.3691 52.084C23.3724 52.11 23.3789 52.1442 23.3887 52.1865C23.3984 52.2256 23.4082 52.2663 23.418 52.3086C23.431 52.3509 23.444 52.3916 23.457 52.4307C23.4701 52.4697 23.4831 52.5007 23.4961 52.5234C23.5091 52.556 23.5319 52.5967 23.5645 52.6455C23.6003 52.6943 23.6393 52.7432 23.6816 52.792C23.724 52.8376 23.7663 52.8783 23.8086 52.9141C23.8542 52.9499 23.8965 52.9727 23.9355 52.9824C23.9421 52.9824 23.9567 52.9889 23.9795 53.002C24.0023 53.0117 24.0218 53.0166 24.0381 53.0166C24.0609 53.0166 24.0723 53.0182 24.0723 53.0215C24.1081 53.0247 24.1406 53.0329 24.1699 53.0459C24.1992 53.0557 24.2269 53.0671 24.2529 53.0801C24.279 53.0898 24.3066 53.0996 24.3359 53.1094C24.3652 53.1191 24.3978 53.124 24.4336 53.124H24.502C24.5052 53.1208 24.5166 53.1143 24.5361 53.1045C24.5557 53.0947 24.5752 53.085 24.5947 53.0752C24.6175 53.0654 24.637 53.0573 24.6533 53.0508C24.6729 53.0443 24.6842 53.041 24.6875 53.041H24.7656C24.7982 53.0312 24.8324 53.0215 24.8682 53.0117C24.8942 53.0052 24.9219 53.0003 24.9512 52.9971C24.9805 52.9906 25.0033 52.9857 25.0195 52.9824C25.1074 52.9531 25.1855 52.8994 25.2539 52.8213C25.3255 52.7399 25.3825 52.6667 25.4248 52.6016C25.4281 52.5951 25.4329 52.5804 25.4395 52.5576C25.4492 52.5348 25.4574 52.512 25.4639 52.4893C25.4736 52.4632 25.4818 52.4388 25.4883 52.416C25.4948 52.3932 25.498 52.3786 25.498 52.3721C25.5371 52.2712 25.5664 52.1654 25.5859 52.0547C25.6055 51.944 25.6185 51.8317 25.625 51.7178C25.6315 51.6006 25.6364 51.485 25.6396 51.3711C25.6429 51.2572 25.6494 51.1465 25.6592 51.0391C25.6592 51.0358 25.6608 51.026 25.6641 51.0098C25.6673 50.9902 25.6689 50.9707 25.6689 50.9512C25.6722 50.9284 25.6755 50.9089 25.6787 50.8926C25.682 50.873 25.6836 50.86 25.6836 50.8535V50.6484V50.4287C25.6803 50.4027 25.6755 50.3555 25.6689 50.2871C25.6624 50.2188 25.6543 50.1455 25.6445 50.0674C25.638 49.9893 25.6315 49.916 25.625 49.8477C25.6217 49.776 25.6201 49.7256 25.6201 49.6963C25.6136 49.68 25.6006 49.6491 25.5811 49.6035C25.5615 49.5547 25.5452 49.5238 25.5322 49.5107C25.529 49.4945 25.5241 49.4782 25.5176 49.4619C25.5111 49.4424 25.5046 49.4326 25.498 49.4326C25.4753 49.4098 25.4541 49.3984 25.4346 49.3984C25.4183 49.3984 25.4036 49.4001 25.3906 49.4033C25.3809 49.4066 25.3695 49.4082 25.3564 49.4082C25.3402 49.4082 25.3255 49.4049 25.3125 49.3984C25.2311 49.3822 25.1562 49.3626 25.0879 49.3398C25.0228 49.3171 24.9626 49.2699 24.9072 49.1982C24.9007 49.182 24.8958 49.1706 24.8926 49.1641C24.8926 49.1576 24.8926 49.1429 24.8926 49.1201C24.8926 49.1136 24.8942 49.1071 24.8975 49.1006C24.9007 49.0908 24.904 49.0827 24.9072 49.0762C24.9593 49.0111 25.0228 48.972 25.0977 48.959C25.1725 48.9427 25.2507 48.9346 25.332 48.9346C25.3906 48.9346 25.4492 48.9378 25.5078 48.9443C25.5664 48.9476 25.6234 48.9492 25.6787 48.9492C25.7048 48.9492 25.7422 48.9443 25.791 48.9346C25.8431 48.9248 25.887 48.9199 25.9229 48.9199H26.2256C26.2549 48.9199 26.2891 48.9183 26.3281 48.915C26.3704 48.9118 26.4128 48.9102 26.4551 48.9102C26.5202 48.9102 26.5837 48.915 26.6455 48.9248C26.7074 48.9346 26.7594 48.9541 26.8018 48.9834C26.8083 48.9932 26.8115 49.0111 26.8115 49.0371C26.8148 49.0632 26.8164 49.0794 26.8164 49.0859C26.8164 49.151 26.8001 49.2015 26.7676 49.2373C26.7383 49.2699 26.6992 49.2959 26.6504 49.3154C26.6048 49.3317 26.5544 49.3447 26.499 49.3545C26.4469 49.3643 26.3981 49.3789 26.3525 49.3984C26.3005 49.4212 26.2581 49.457 26.2256 49.5059C26.193 49.5547 26.1768 49.6084 26.1768 49.667C26.1768 49.7191 26.1816 49.7646 26.1914 49.8037C26.2044 49.8428 26.2109 49.8883 26.2109 49.9404V50.0234C26.2109 50.0332 26.2044 50.0544 26.1914 50.0869C26.1816 50.1195 26.1768 50.1374 26.1768 50.1406V50.2627V50.5459C26.1735 50.5817 26.1702 50.6436 26.167 50.7314C26.1637 50.8193 26.1589 50.9137 26.1523 51.0146C26.1491 51.1123 26.1458 51.2051 26.1426 51.293C26.1393 51.3809 26.1361 51.4427 26.1328 51.4785C26.1165 51.5111 26.1051 51.5436 26.0986 51.5762C26.0921 51.6055 26.0872 51.6364 26.084 51.6689C26.0807 51.6982 26.0775 51.7275 26.0742 51.7568C26.0742 51.7861 26.0693 51.8171 26.0596 51.8496C26.0563 51.8594 26.0514 51.8773 26.0449 51.9033C26.0384 51.9261 26.0303 51.9521 26.0205 51.9814C26.014 52.0107 26.0075 52.0384 26.001 52.0645C25.9945 52.0872 25.9912 52.1019 25.9912 52.1084C25.9847 52.1149 25.9798 52.1312 25.9766 52.1572C25.9733 52.18 25.9701 52.2044 25.9668 52.2305C25.9668 52.2533 25.9635 52.276 25.957 52.2988C25.9538 52.3184 25.9505 52.3281 25.9473 52.3281C25.9473 52.3379 25.9359 52.3607 25.9131 52.3965C25.8903 52.429 25.8773 52.4486 25.874 52.4551C25.8675 52.4616 25.8561 52.4827 25.8398 52.5186C25.8236 52.5544 25.804 52.5934 25.7812 52.6357C25.7617 52.6781 25.7422 52.7171 25.7227 52.7529C25.7031 52.7887 25.6901 52.8115 25.6836 52.8213C25.625 52.932 25.5485 53.0312 25.4541 53.1191C25.363 53.207 25.2653 53.2965 25.1611 53.3877C25.1481 53.3975 25.1286 53.4121 25.1025 53.4316C25.0765 53.4479 25.0488 53.4658 25.0195 53.4854C24.9935 53.5049 24.9691 53.5228 24.9463 53.5391C24.9235 53.5521 24.9105 53.5602 24.9072 53.5635H24.7656C24.7038 53.57 24.6484 53.5765 24.5996 53.583C24.554 53.5928 24.5085 53.6009 24.4629 53.6074C24.4173 53.6172 24.3701 53.6253 24.3213 53.6318C24.2725 53.6383 24.2171 53.6416 24.1553 53.6416H23.8623C23.8265 53.6253 23.7891 53.6139 23.75 53.6074C23.7109 53.6009 23.6719 53.5944 23.6328 53.5879C23.597 53.5846 23.5612 53.5781 23.5254 53.5684C23.4896 53.5618 23.4554 53.5488 23.4229 53.5293C23.4131 53.526 23.3919 53.5146 23.3594 53.4951C23.3268 53.4723 23.2894 53.4463 23.2471 53.417C23.208 53.3877 23.1689 53.36 23.1299 53.334C23.0908 53.3047 23.0615 53.2803 23.042 53.2607L23.0078 53.2363C22.9818 53.194 22.9541 53.1582 22.9248 53.1289C22.8955 53.0964 22.8662 53.0654 22.8369 53.0361C22.8076 53.0068 22.7783 52.9759 22.749 52.9434C22.723 52.9076 22.7002 52.8669 22.6807 52.8213C22.6123 52.665 22.5635 52.4974 22.5342 52.3184C22.5081 52.1361 22.4951 51.957 22.4951 51.7812C22.4919 51.7422 22.4886 51.6885 22.4854 51.6201C22.4854 51.5485 22.4854 51.4671 22.4854 51.376C22.4854 51.2816 22.4854 51.1807 22.4854 51.0732C22.4854 50.9658 22.4854 50.8551 22.4854 50.7412C22.4854 50.6305 22.4854 50.5215 22.4854 50.4141C22.4854 50.3066 22.4854 50.2074 22.4854 50.1162C22.4854 50.0218 22.4854 49.9388 22.4854 49.8672C22.4886 49.7923 22.4919 49.7354 22.4951 49.6963ZM30.0732 49.6768C30.0993 49.6637 30.1172 49.641 30.127 49.6084C30.1367 49.5758 30.1416 49.5433 30.1416 49.5107C30.1416 49.4424 30.1156 49.3952 30.0635 49.3691C30.0146 49.3398 29.9593 49.3187 29.8975 49.3057C29.8389 49.2894 29.7835 49.2731 29.7314 49.2568C29.6826 49.2373 29.6582 49.2031 29.6582 49.1543C29.6582 49.138 29.6647 49.125 29.6777 49.1152C29.6908 49.1022 29.707 49.0924 29.7266 49.0859C29.7461 49.0762 29.7656 49.068 29.7852 49.0615C29.8079 49.055 29.8275 49.0485 29.8438 49.042C29.86 49.0355 29.8861 49.029 29.9219 49.0225C29.9609 49.016 29.9837 49.0127 29.9902 49.0127H30.8496C30.9082 48.9867 30.9652 48.972 31.0205 48.9688C31.0758 48.9622 31.1312 48.959 31.1865 48.959C31.2288 48.959 31.2679 48.9606 31.3037 48.9639C31.3428 48.9639 31.3753 48.9688 31.4014 48.9785C31.4307 48.9883 31.4535 49.0062 31.4697 49.0322C31.486 49.0583 31.4941 49.0957 31.4941 49.1445C31.4941 49.2129 31.4746 49.265 31.4355 49.3008C31.3997 49.3366 31.3542 49.3643 31.2988 49.3838C31.2435 49.4001 31.1849 49.4131 31.123 49.4229C31.0645 49.4326 31.0124 49.444 30.9668 49.457C30.8203 49.5091 30.6901 49.5791 30.5762 49.667C30.4655 49.7516 30.3597 49.8558 30.2588 49.9795C30.249 49.9893 30.2311 50.0104 30.2051 50.043C30.179 50.0723 30.1497 50.1048 30.1172 50.1406C30.0879 50.1764 30.0602 50.2106 30.0342 50.2432C30.0081 50.2725 29.9902 50.292 29.9805 50.3018C29.9674 50.318 29.9528 50.3376 29.9365 50.3604C29.9202 50.3831 29.9007 50.4027 29.8779 50.4189C29.8356 50.4548 29.7949 50.5003 29.7559 50.5557C29.7168 50.611 29.6842 50.6647 29.6582 50.7168C29.6452 50.7396 29.6338 50.7607 29.624 50.7803C29.6175 50.7998 29.6143 50.8258 29.6143 50.8584C29.6143 50.9268 29.6322 50.9984 29.668 51.0732C29.7038 51.1481 29.738 51.2181 29.7705 51.2832C29.7835 51.3027 29.7998 51.332 29.8193 51.3711C29.8389 51.4069 29.8584 51.4427 29.8779 51.4785C29.8975 51.5143 29.9137 51.5469 29.9268 51.5762C29.943 51.6055 29.9528 51.6234 29.9561 51.6299C29.9593 51.6364 29.9707 51.6559 29.9902 51.6885C30.013 51.7178 30.0374 51.752 30.0635 51.791C30.0895 51.8268 30.1123 51.861 30.1318 51.8936C30.1546 51.9261 30.1693 51.9473 30.1758 51.957L30.293 52.1768C30.332 52.2679 30.3727 52.359 30.415 52.4502C30.4574 52.5381 30.5029 52.6243 30.5518 52.709C30.6006 52.7904 30.6559 52.8685 30.7178 52.9434C30.7796 53.0182 30.8512 53.0898 30.9326 53.1582C30.9619 53.181 30.9993 53.2005 31.0449 53.2168C31.0905 53.2298 31.1344 53.2445 31.1768 53.2607C31.2223 53.277 31.2598 53.2998 31.2891 53.3291C31.3216 53.3551 31.3379 53.3942 31.3379 53.4463C31.3379 53.5114 31.3167 53.5521 31.2744 53.5684C31.2354 53.5879 31.1898 53.5977 31.1377 53.5977C31.1084 53.5977 31.0775 53.596 31.0449 53.5928C31.0156 53.5895 30.9896 53.5879 30.9668 53.5879C30.9538 53.5944 30.9212 53.5993 30.8691 53.6025C30.8171 53.609 30.7601 53.6156 30.6982 53.6221C30.6396 53.6286 30.5843 53.6335 30.5322 53.6367C30.4801 53.64 30.4476 53.6416 30.4346 53.6416H30.4102C30.4069 53.6416 30.3955 53.64 30.376 53.6367C30.3564 53.6335 30.3353 53.6286 30.3125 53.6221C30.293 53.6156 30.2718 53.609 30.249 53.6025C30.2295 53.5993 30.2181 53.5944 30.2148 53.5879C30.1986 53.5879 30.1644 53.5863 30.1123 53.583C30.0635 53.5798 30.0098 53.5765 29.9512 53.5732C29.8958 53.5732 29.8438 53.5716 29.7949 53.5684C29.7461 53.5651 29.7152 53.5635 29.7021 53.5635C29.6891 53.5635 29.6615 53.5602 29.6191 53.5537C29.5801 53.5439 29.554 53.5358 29.541 53.5293V53.4951C29.541 53.443 29.5524 53.4072 29.5752 53.3877C29.6012 53.3682 29.6273 53.3519 29.6533 53.3389C29.6826 53.3226 29.7087 53.3031 29.7314 53.2803C29.7575 53.2575 29.7705 53.2168 29.7705 53.1582C29.7705 53.1257 29.7607 53.0736 29.7412 53.002C29.7217 52.9303 29.694 52.8522 29.6582 52.7676C29.6257 52.6797 29.5882 52.5902 29.5459 52.499C29.5068 52.4079 29.4645 52.3249 29.4189 52.25C29.3766 52.1751 29.3359 52.1133 29.2969 52.0645C29.2578 52.0156 29.2236 51.9912 29.1943 51.9912C29.139 51.9912 29.0934 52.0075 29.0576 52.04C29.0218 52.0693 28.9909 52.1068 28.9648 52.1523C28.9388 52.1947 28.916 52.2402 28.8965 52.2891C28.877 52.3379 28.8574 52.3802 28.8379 52.416C28.8281 52.4323 28.8037 52.4714 28.7646 52.5332C28.7256 52.5918 28.6816 52.6569 28.6328 52.7285C28.5872 52.8001 28.5433 52.8669 28.501 52.9287C28.4619 52.9906 28.4375 53.028 28.4277 53.041C28.4212 53.0443 28.4131 53.0557 28.4033 53.0752C28.3968 53.0915 28.3903 53.1029 28.3838 53.1094V53.1436C28.3838 53.1891 28.4033 53.2217 28.4424 53.2412C28.4814 53.2607 28.527 53.2786 28.5791 53.2949C28.6312 53.3079 28.6833 53.3258 28.7354 53.3486C28.7907 53.3682 28.833 53.4007 28.8623 53.4463C28.8623 53.4886 28.8509 53.5179 28.8281 53.5342C28.8086 53.5472 28.7842 53.557 28.7549 53.5635H27.3877C27.3617 53.5635 27.3454 53.5537 27.3389 53.5342C27.3356 53.5114 27.334 53.4951 27.334 53.4854V53.4463C27.373 53.4007 27.417 53.3633 27.4658 53.334C27.5179 53.3047 27.57 53.2786 27.6221 53.2559C27.6774 53.2331 27.7327 53.2119 27.7881 53.1924C27.8434 53.1696 27.8955 53.1419 27.9443 53.1094C27.9574 53.0964 27.9834 53.0719 28.0225 53.0361C28.0615 52.9971 28.1022 52.9564 28.1445 52.9141C28.1901 52.8717 28.2324 52.8311 28.2715 52.792C28.3138 52.7529 28.3431 52.7253 28.3594 52.709C28.444 52.6113 28.5156 52.5104 28.5742 52.4062C28.6361 52.2988 28.6963 52.1898 28.7549 52.0791C28.7614 52.0693 28.776 52.0547 28.7988 52.0352C28.8216 52.0124 28.8346 51.9977 28.8379 51.9912C28.8477 51.9782 28.8607 51.9603 28.877 51.9375C28.8965 51.9115 28.9128 51.887 28.9258 51.8643C28.9421 51.8415 28.9551 51.8219 28.9648 51.8057C28.9779 51.7861 28.9844 51.7747 28.9844 51.7715C28.9844 51.7715 28.9844 51.7633 28.9844 51.7471C28.9876 51.7275 28.9893 51.7064 28.9893 51.6836C28.9925 51.6608 28.9941 51.6396 28.9941 51.6201C28.9974 51.5973 28.999 51.5811 28.999 51.5713C28.999 51.5615 28.9974 51.5469 28.9941 51.5273C28.9941 51.5078 28.9925 51.4867 28.9893 51.4639C28.9893 51.4411 28.9876 51.4199 28.9844 51.4004C28.9844 51.3776 28.9844 51.363 28.9844 51.3564C28.8932 51.3011 28.8249 51.2376 28.7793 51.166C28.7337 51.0911 28.6914 51.0065 28.6523 50.9121C28.6491 50.9023 28.6393 50.8844 28.623 50.8584C28.6068 50.8324 28.5905 50.8063 28.5742 50.7803C28.5579 50.751 28.5417 50.7249 28.5254 50.7021C28.5124 50.6761 28.5042 50.6615 28.501 50.6582C28.488 50.6322 28.4684 50.5915 28.4424 50.5361C28.4196 50.4808 28.4001 50.4417 28.3838 50.4189C28.3773 50.4157 28.3708 50.4059 28.3643 50.3896C28.3577 50.3701 28.3512 50.3506 28.3447 50.3311C28.3382 50.3115 28.3317 50.292 28.3252 50.2725C28.3219 50.2529 28.3187 50.2399 28.3154 50.2334L28.3057 50.2236C28.3024 50.2204 28.2975 50.2188 28.291 50.2188C28.2878 50.2155 28.2845 50.2106 28.2812 50.2041C28.2682 50.1943 28.2568 50.1846 28.2471 50.1748C28.182 50.0934 28.1299 50.0088 28.0908 49.9209C28.055 49.833 28.0062 49.7516 27.9443 49.6768C27.902 49.6279 27.8581 49.5856 27.8125 49.5498C27.7669 49.5107 27.7197 49.4749 27.6709 49.4424C27.6253 49.4098 27.5781 49.3773 27.5293 49.3447C27.4805 49.3122 27.4333 49.2747 27.3877 49.2324C27.3617 49.2161 27.3454 49.1966 27.3389 49.1738C27.3356 49.1478 27.334 49.1217 27.334 49.0957C27.334 49.0599 27.3421 49.0371 27.3584 49.0273C27.3747 49.0176 27.4007 49.0127 27.4365 49.0127H27.4561C27.4561 49.0127 27.4626 49.0143 27.4756 49.0176C27.4919 49.0208 27.5081 49.0241 27.5244 49.0273C27.5439 49.0306 27.5602 49.0339 27.5732 49.0371C27.5895 49.0404 27.6009 49.042 27.6074 49.042H27.6318C27.8402 49.042 28.0452 49.0355 28.2471 49.0225C28.4521 49.0094 28.6572 49.0029 28.8623 49.0029C28.9404 49.0029 28.9974 49.0127 29.0332 49.0322C29.0723 49.0485 29.0918 49.0941 29.0918 49.1689C29.0918 49.234 29.0788 49.2796 29.0527 49.3057C29.0267 49.3285 28.9974 49.3464 28.9648 49.3594C28.9323 49.3724 28.903 49.3887 28.877 49.4082C28.8509 49.4277 28.8379 49.4668 28.8379 49.5254C28.8379 49.5514 28.8477 49.5856 28.8672 49.6279C28.8867 49.667 28.903 49.6947 28.916 49.7109C28.9258 49.7272 28.9469 49.7679 28.9795 49.833C29.0153 49.8949 29.0527 49.9632 29.0918 50.0381C29.1341 50.1097 29.1732 50.1764 29.209 50.2383C29.2448 50.3001 29.2676 50.3392 29.2773 50.3555C29.3001 50.388 29.3197 50.4141 29.3359 50.4336C29.3555 50.4531 29.3783 50.4629 29.4043 50.4629C29.4434 50.4629 29.4873 50.4466 29.5361 50.4141C29.5882 50.3783 29.6549 50.3294 29.7363 50.2676C29.7689 50.2415 29.8014 50.2008 29.834 50.1455C29.8698 50.0869 29.9023 50.0283 29.9316 49.9697C29.9609 49.9079 29.987 49.8493 30.0098 49.7939C30.0358 49.7386 30.057 49.6995 30.0732 49.6768ZM36.2646 53.5537C36.2516 53.5537 36.2321 53.5553 36.2061 53.5586C36.1833 53.5586 36.1589 53.5586 36.1328 53.5586C36.11 53.5586 36.0889 53.5602 36.0693 53.5635C36.0498 53.5635 36.04 53.5635 36.04 53.5635L35.9229 53.6074L35.3223 53.5732H34.043C33.9941 53.557 33.9518 53.5456 33.916 53.5391C33.8835 53.5326 33.8444 53.5293 33.7988 53.5293C33.763 53.5293 33.7354 53.5309 33.7158 53.5342C33.6963 53.5374 33.6702 53.5472 33.6377 53.5635C33.6051 53.5635 33.5498 53.5618 33.4717 53.5586C33.3968 53.5553 33.3171 53.5537 33.2324 53.5537C33.1478 53.5537 33.0664 53.5553 32.9883 53.5586C32.9134 53.5618 32.863 53.5635 32.8369 53.5635C32.8271 53.5635 32.8092 53.5651 32.7832 53.5684C32.7604 53.5716 32.7344 53.5732 32.7051 53.5732C32.679 53.5765 32.653 53.5798 32.627 53.583C32.6042 53.5863 32.5895 53.5879 32.583 53.5879C32.5732 53.5911 32.5618 53.5928 32.5488 53.5928C32.5391 53.596 32.5293 53.5977 32.5195 53.5977C32.513 53.5977 32.5065 53.5977 32.5 53.5977C32.4121 53.5977 32.3454 53.5879 32.2998 53.5684C32.2575 53.5521 32.2201 53.5 32.1875 53.4121C32.1745 53.4121 32.168 53.4089 32.168 53.4023C32.1647 53.3991 32.1647 53.3942 32.168 53.3877C32.168 53.3617 32.1761 53.334 32.1924 53.3047C32.2119 53.2721 32.2347 53.2428 32.2607 53.2168C32.29 53.1908 32.3193 53.1696 32.3486 53.1533C32.3812 53.1338 32.4121 53.124 32.4414 53.124H32.9053C32.9118 53.124 32.9329 53.1061 32.9688 53.0703C33.0046 53.0312 33.0339 53.002 33.0566 52.9824C33.0632 52.9759 33.0697 52.9629 33.0762 52.9434C33.0859 52.9206 33.0908 52.9043 33.0908 52.8945C33.1299 52.7025 33.1527 52.512 33.1592 52.3232C33.1657 52.1344 33.1689 51.9375 33.1689 51.7324C33.1689 51.7161 33.1689 51.6803 33.1689 51.625C33.1722 51.5664 33.1738 51.498 33.1738 51.4199C33.1771 51.3418 33.1803 51.2604 33.1836 51.1758C33.1868 51.0879 33.1885 51.0049 33.1885 50.9268C33.1917 50.8486 33.1934 50.7819 33.1934 50.7266C33.1966 50.668 33.1982 50.6289 33.1982 50.6094V50.3457C33.1982 50.0853 33.1934 49.8281 33.1836 49.5742C33.1738 49.3203 33.1689 49.068 33.1689 48.8174V48.7832C33.1689 48.7734 33.1706 48.749 33.1738 48.71C33.1771 48.6676 33.1803 48.6237 33.1836 48.5781C33.1868 48.5326 33.1901 48.4902 33.1934 48.4512C33.1966 48.4121 33.1982 48.3877 33.1982 48.3779C33.2015 48.3486 33.2048 48.2982 33.208 48.2266C33.2113 48.1517 33.2145 48.0736 33.2178 47.9922C33.221 47.9076 33.2243 47.8294 33.2275 47.7578C33.2308 47.6862 33.2324 47.6357 33.2324 47.6064C33.2161 47.5576 33.2064 47.5072 33.2031 47.4551C33.1999 47.3997 33.195 47.3477 33.1885 47.2988C33.182 47.2467 33.1689 47.1979 33.1494 47.1523C33.1299 47.1068 33.099 47.0677 33.0566 47.0352C33.0371 47.0319 33.0029 47.0286 32.9541 47.0254C32.9053 47.0221 32.8532 47.0205 32.7979 47.0205C32.7458 47.0173 32.6953 47.014 32.6465 47.0107C32.5977 47.0075 32.5651 47.0042 32.5488 47.001C32.4967 46.9945 32.4398 46.9863 32.3779 46.9766C32.3161 46.9635 32.2591 46.9456 32.207 46.9229C32.1549 46.8968 32.111 46.8626 32.0752 46.8203C32.0426 46.778 32.0264 46.7227 32.0264 46.6543L32.0459 46.6445C32.0524 46.6413 32.0573 46.638 32.0605 46.6348C32.0638 46.6315 32.0687 46.6299 32.0752 46.6299C32.1533 46.5843 32.2233 46.555 32.2852 46.542C32.347 46.5257 32.4268 46.5176 32.5244 46.5176H32.5488C32.5586 46.5273 32.5684 46.5355 32.5781 46.542C32.5977 46.555 32.6107 46.5615 32.6172 46.5615C32.7799 46.5745 32.9427 46.5843 33.1055 46.5908C33.2682 46.5941 33.4326 46.5957 33.5986 46.5957C33.7354 46.5957 33.8688 46.5941 33.999 46.5908C34.1292 46.5876 34.2578 46.5859 34.3848 46.5859H35.4639C35.4769 46.5859 35.498 46.5843 35.5273 46.5811C35.5566 46.5778 35.5876 46.5762 35.6201 46.5762C35.6559 46.5729 35.6901 46.5697 35.7227 46.5664C35.7552 46.5632 35.7796 46.5615 35.7959 46.5615H35.8301H35.8594C35.8691 46.5615 35.8919 46.5632 35.9277 46.5664C35.9635 46.5697 36.0026 46.5729 36.0449 46.5762C36.0872 46.5762 36.1263 46.5778 36.1621 46.5811C36.2012 46.5843 36.2256 46.5859 36.2354 46.5859H36.8164C36.8424 46.5892 36.8799 46.5924 36.9287 46.5957C36.9808 46.599 37.0312 46.6022 37.0801 46.6055C37.1322 46.6087 37.1777 46.6136 37.2168 46.6201C37.2559 46.6234 37.277 46.6266 37.2803 46.6299C37.2835 46.6299 37.2965 46.6348 37.3193 46.6445C37.3421 46.6543 37.3665 46.6673 37.3926 46.6836C37.4219 46.6966 37.4495 46.7113 37.4756 46.7275C37.5049 46.7438 37.5277 46.7585 37.5439 46.7715C37.5765 46.791 37.6025 46.8382 37.6221 46.9131C37.6449 46.9847 37.6628 47.0645 37.6758 47.1523C37.6888 47.2402 37.6986 47.3265 37.7051 47.4111C37.7148 47.4958 37.723 47.5609 37.7295 47.6064C37.7295 47.6227 37.7311 47.652 37.7344 47.6943C37.7409 47.7334 37.7458 47.7757 37.749 47.8213C37.7523 47.8669 37.7555 47.9108 37.7588 47.9531C37.762 47.9954 37.7637 48.0247 37.7637 48.041V48.1729V48.3096C37.7474 48.3389 37.7262 48.3584 37.7002 48.3682C37.6742 48.3747 37.6465 48.3779 37.6172 48.3779H37.583C37.5472 48.3551 37.5212 48.3324 37.5049 48.3096C37.4886 48.2868 37.4756 48.264 37.4658 48.2412C37.4561 48.2152 37.4463 48.1891 37.4365 48.1631C37.43 48.137 37.417 48.1094 37.3975 48.0801C37.3975 48.0768 37.391 48.0703 37.3779 48.0605C37.3682 48.0475 37.3568 48.0345 37.3438 48.0215C37.3307 48.0085 37.3177 47.9971 37.3047 47.9873C37.2917 47.9743 37.2835 47.9661 37.2803 47.9629C37.2347 47.8978 37.1891 47.8245 37.1436 47.7432C37.1012 47.6585 37.0508 47.5804 36.9922 47.5088C36.9889 47.5023 36.9775 47.4909 36.958 47.4746C36.9417 47.4583 36.9303 47.4437 36.9238 47.4307C36.9206 47.4242 36.9092 47.4193 36.8896 47.416C36.8701 47.4095 36.8571 47.403 36.8506 47.3965C36.8115 47.3704 36.7806 47.3411 36.7578 47.3086C36.735 47.276 36.7106 47.2451 36.6846 47.2158C36.6618 47.1833 36.6357 47.1523 36.6064 47.123C36.5771 47.0938 36.5365 47.0693 36.4844 47.0498C36.4583 47.0498 36.4079 47.0482 36.333 47.0449C36.2614 47.0384 36.1849 47.0335 36.1035 47.0303C36.0221 47.0238 35.944 47.0189 35.8691 47.0156C35.7975 47.0091 35.7471 47.0042 35.7178 47.001H35.4639C35.4606 47.001 35.446 46.9993 35.4199 46.9961C35.3971 46.9896 35.3711 46.9847 35.3418 46.9814C35.3125 46.9749 35.2848 46.9701 35.2588 46.9668C35.2327 46.9603 35.2165 46.957 35.21 46.957H35.1367H35.0684C35.0553 46.957 35.026 46.9603 34.9805 46.9668C34.9382 46.9701 34.891 46.9749 34.8389 46.9814C34.79 46.9847 34.7428 46.9896 34.6973 46.9961C34.6549 46.9993 34.6289 47.001 34.6191 47.001H34.3311C34.318 47.001 34.3034 47.0059 34.2871 47.0156C34.2708 47.0221 34.2627 47.0286 34.2627 47.0352V47.6406C34.2594 47.7448 34.2448 47.8441 34.2188 47.9385C34.1927 48.0329 34.1797 48.1289 34.1797 48.2266C34.1797 48.373 34.1862 48.5212 34.1992 48.6709C34.2155 48.8174 34.2236 48.9671 34.2236 49.1201C34.2236 49.2243 34.2155 49.3301 34.1992 49.4375C34.1862 49.5449 34.1797 49.6556 34.1797 49.7695V49.8037C34.1895 49.8135 34.2025 49.8281 34.2188 49.8477C34.235 49.8639 34.2497 49.8721 34.2627 49.8721H34.3848H34.5117C34.5182 49.8721 34.5329 49.8704 34.5557 49.8672C34.5785 49.8607 34.6029 49.8558 34.6289 49.8525C34.6549 49.846 34.6777 49.8411 34.6973 49.8379C34.7201 49.8314 34.7331 49.8281 34.7363 49.8281H35.1709C35.1937 49.8281 35.2344 49.8265 35.293 49.8232C35.3548 49.82 35.4183 49.8184 35.4834 49.8184C35.5518 49.8151 35.6152 49.8118 35.6738 49.8086C35.7324 49.8053 35.7731 49.8037 35.7959 49.8037C35.8447 49.7614 35.8805 49.6995 35.9033 49.6182C35.9261 49.5335 35.9489 49.4635 35.9717 49.4082C35.9749 49.3984 35.9782 49.3757 35.9814 49.3398C35.988 49.3008 35.9945 49.2601 36.001 49.2178C36.0075 49.1755 36.014 49.1364 36.0205 49.1006C36.027 49.0615 36.0335 49.0371 36.04 49.0273C36.04 49.0241 36.0433 49.016 36.0498 49.0029C36.0596 48.9867 36.0693 48.972 36.0791 48.959C36.0889 48.9427 36.097 48.9281 36.1035 48.915C36.1133 48.902 36.1198 48.8939 36.123 48.8906C36.1361 48.8483 36.1442 48.8027 36.1475 48.7539C36.1507 48.7051 36.1589 48.6611 36.1719 48.6221C36.1849 48.5798 36.2061 48.5456 36.2354 48.5195C36.2646 48.4935 36.3118 48.4805 36.377 48.4805C36.4486 48.4805 36.4958 48.4967 36.5186 48.5293C36.5413 48.5618 36.5527 48.6156 36.5527 48.6904C36.5527 48.7165 36.5511 48.736 36.5479 48.749C36.5446 48.7588 36.5381 48.7816 36.5283 48.8174C36.5283 48.8206 36.5267 48.8288 36.5234 48.8418C36.5202 48.8548 36.5186 48.8695 36.5186 48.8857C36.5186 48.9118 36.5202 48.9362 36.5234 48.959C36.5267 48.9785 36.5283 48.9932 36.5283 49.0029C36.5251 49.0225 36.5218 49.0632 36.5186 49.125C36.5153 49.1868 36.5104 49.2585 36.5039 49.3398C36.4974 49.4212 36.4909 49.5091 36.4844 49.6035C36.4779 49.6947 36.4714 49.7826 36.4648 49.8672C36.4583 49.9486 36.4518 50.0202 36.4453 50.082C36.4421 50.1439 36.4388 50.1862 36.4355 50.209C36.4355 50.2155 36.4372 50.2464 36.4404 50.3018C36.4437 50.3538 36.4453 50.4076 36.4453 50.4629C36.4453 50.4889 36.4421 50.5182 36.4355 50.5508C36.429 50.5801 36.4242 50.5996 36.4209 50.6094C36.4209 50.6094 36.4176 50.6175 36.4111 50.6338C36.4079 50.6501 36.403 50.6696 36.3965 50.6924C36.3932 50.7119 36.3883 50.7314 36.3818 50.751C36.3786 50.7673 36.377 50.7786 36.377 50.7852C36.377 50.7949 36.3786 50.8177 36.3818 50.8535C36.3851 50.8893 36.3883 50.9284 36.3916 50.9707C36.3981 51.0098 36.403 51.0472 36.4062 51.083C36.4095 51.1156 36.4111 51.1367 36.4111 51.1465C36.4111 51.1595 36.4111 51.179 36.4111 51.2051C36.4144 51.2279 36.416 51.2523 36.416 51.2783C36.416 51.3011 36.416 51.3239 36.416 51.3467C36.4193 51.3695 36.4209 51.3874 36.4209 51.4004C36.4209 51.4557 36.4144 51.5062 36.4014 51.5518C36.3916 51.5973 36.3688 51.6478 36.333 51.7031C36.3298 51.7194 36.3135 51.7373 36.2842 51.7568C36.2581 51.7731 36.2419 51.7812 36.2354 51.7812C36.2288 51.7812 36.2109 51.7731 36.1816 51.7568C36.1523 51.7373 36.1328 51.7194 36.123 51.7031C36.0677 51.6576 36.0286 51.5941 36.0059 51.5127C35.9863 51.4313 35.9733 51.3434 35.9668 51.249C35.9603 51.1514 35.957 51.0521 35.957 50.9512C35.957 50.8503 35.9505 50.7575 35.9375 50.6729C35.9277 50.585 35.9066 50.5117 35.874 50.4531C35.8415 50.3945 35.7894 50.3587 35.7178 50.3457C35.6917 50.3522 35.651 50.3555 35.5957 50.3555C35.5404 50.3555 35.4801 50.3555 35.415 50.3555C35.3467 50.3555 35.2816 50.3555 35.2197 50.3555C35.1611 50.3555 35.1221 50.3522 35.1025 50.3457C35.0863 50.3457 35.0602 50.3441 35.0244 50.3408C34.9886 50.3376 34.9512 50.3359 34.9121 50.3359C34.8763 50.3327 34.8405 50.3294 34.8047 50.3262C34.7721 50.3229 34.7493 50.3213 34.7363 50.3213C34.7331 50.3115 34.7201 50.3001 34.6973 50.2871C34.6745 50.2741 34.6598 50.2676 34.6533 50.2676H34.6045C34.5199 50.2676 34.4385 50.2887 34.3604 50.3311C34.2855 50.3701 34.2399 50.4336 34.2236 50.5215C34.2204 50.5443 34.2122 50.5898 34.1992 50.6582C34.1895 50.7233 34.1781 50.7949 34.165 50.873C34.1553 50.9512 34.1439 51.0277 34.1309 51.1025C34.1211 51.1742 34.1146 51.2279 34.1113 51.2637V51.293V51.3271C34.1113 51.3532 34.113 51.3955 34.1162 51.4541C34.1195 51.5127 34.1227 51.5762 34.126 51.6445C34.1292 51.7096 34.1325 51.7731 34.1357 51.835C34.1423 51.8936 34.1455 51.9342 34.1455 51.957C34.1618 51.9831 34.1715 52.0026 34.1748 52.0156C34.1781 52.0286 34.1797 52.0433 34.1797 52.0596C34.1797 52.1865 34.1732 52.3102 34.1602 52.4307C34.1471 52.5511 34.1406 52.6781 34.1406 52.8115C34.1406 52.8245 34.1406 52.8522 34.1406 52.8945C34.1439 52.9368 34.1455 52.9661 34.1455 52.9824C34.1488 52.9889 34.1569 53.0003 34.1699 53.0166C34.1829 53.0296 34.196 53.0443 34.209 53.0605C34.2253 53.0736 34.2415 53.0866 34.2578 53.0996C34.2741 53.1126 34.2855 53.1208 34.292 53.124C34.2952 53.1305 34.3099 53.1354 34.3359 53.1387C34.3652 53.1419 34.3978 53.1452 34.4336 53.1484C34.4694 53.1484 34.5036 53.1517 34.5361 53.1582C34.5719 53.1615 34.5996 53.1647 34.6191 53.168C34.6582 53.168 34.7249 53.1696 34.8193 53.1729C34.917 53.1761 35.0195 53.1794 35.127 53.1826C35.2376 53.1859 35.3402 53.1891 35.4346 53.1924C35.5322 53.1924 35.6006 53.1924 35.6396 53.1924C35.6787 53.2087 35.7178 53.2201 35.7568 53.2266C35.7992 53.2331 35.8398 53.2363 35.8789 53.2363H36.0156H36.2354C36.2386 53.2363 36.25 53.2347 36.2695 53.2314C36.2891 53.2249 36.3102 53.2201 36.333 53.2168C36.359 53.2103 36.3818 53.2054 36.4014 53.2021C36.4209 53.1956 36.4323 53.1924 36.4355 53.1924H37.3633C37.3991 53.1826 37.4333 53.1647 37.4658 53.1387C37.4984 53.1094 37.5293 53.0785 37.5586 53.0459C37.5879 53.0101 37.6139 52.9743 37.6367 52.9385C37.6595 52.8994 37.679 52.8652 37.6953 52.8359C37.7051 52.8262 37.7181 52.8034 37.7344 52.7676C37.7539 52.7318 37.7718 52.6943 37.7881 52.6553C37.8076 52.613 37.8255 52.5739 37.8418 52.5381C37.8581 52.5023 37.8678 52.4811 37.8711 52.4746C37.8776 52.4648 37.8923 52.4453 37.915 52.416C37.9378 52.3867 37.9492 52.3688 37.9492 52.3623C37.9525 52.3558 37.959 52.3379 37.9688 52.3086C37.9785 52.2793 37.9834 52.2614 37.9834 52.2549C37.9867 52.2516 37.9948 52.2419 38.0078 52.2256C38.0241 52.2093 38.0404 52.193 38.0566 52.1768C38.0729 52.1605 38.0876 52.1442 38.1006 52.1279C38.1136 52.1117 38.1217 52.1003 38.125 52.0938C38.1283 52.0905 38.1348 52.0807 38.1445 52.0645C38.1576 52.0449 38.1689 52.0238 38.1787 52.001C38.1917 51.9749 38.2015 51.9521 38.208 51.9326C38.2178 51.9098 38.2243 51.8952 38.2275 51.8887C38.234 51.8757 38.252 51.8561 38.2812 51.8301C38.3138 51.804 38.3317 51.7878 38.335 51.7812C38.3415 51.7747 38.3496 51.7699 38.3594 51.7666C38.3691 51.7601 38.3773 51.7536 38.3838 51.7471C38.3936 51.7406 38.4033 51.7357 38.4131 51.7324C38.4261 51.7389 38.4456 51.7552 38.4717 51.7812C38.4977 51.8073 38.5173 51.8268 38.5303 51.8398V51.8643C38.5303 51.9033 38.5238 51.9408 38.5107 51.9766C38.501 52.0124 38.4961 52.0482 38.4961 52.084C38.4961 52.1296 38.501 52.1702 38.5107 52.2061C38.5238 52.2386 38.5303 52.2777 38.5303 52.3232V52.3623C38.5303 52.3721 38.5238 52.39 38.5107 52.416C38.501 52.4421 38.4961 52.4616 38.4961 52.4746V53.0459C38.4928 53.085 38.488 53.1354 38.4814 53.1973C38.4749 53.2559 38.4619 53.3128 38.4424 53.3682C38.4229 53.4202 38.3952 53.4658 38.3594 53.5049C38.3236 53.5439 38.2764 53.5635 38.2178 53.5635H38.1934C38.1836 53.5602 38.1673 53.557 38.1445 53.5537C38.1217 53.5505 38.099 53.5472 38.0762 53.5439C38.0534 53.5407 38.0322 53.5374 38.0127 53.5342C37.9964 53.5309 37.9867 53.5293 37.9834 53.5293L37.9541 53.5098C37.9346 53.4967 37.9248 53.4886 37.9248 53.4854H37.8955H37.8711C37.7572 53.5244 37.6497 53.5439 37.5488 53.5439C37.4479 53.5439 37.3421 53.5505 37.2314 53.5635C37.2217 53.5635 37.2038 53.5651 37.1777 53.5684C37.1517 53.5716 37.1224 53.5749 37.0898 53.5781C37.0605 53.5846 37.0329 53.5911 37.0068 53.5977C36.9808 53.6042 36.9645 53.609 36.958 53.6123H36.9336C36.875 53.6123 36.8197 53.6042 36.7676 53.5879C36.7188 53.5716 36.6618 53.5635 36.5967 53.5635C36.5902 53.5635 36.5723 53.5635 36.543 53.5635C36.5169 53.5602 36.486 53.5586 36.4502 53.5586C36.4176 53.5586 36.3835 53.5586 36.3477 53.5586C36.3151 53.5553 36.2874 53.5537 36.2646 53.5537Z" fill="#151618"/>
</svg>
