<svg width="10" height="12" viewBox="0 0 10 12" fill="none" xmlns="http://www.w3.org/2000/svg">
<g clip-path="url(#clip0_14_545)">
<path d="M8.48274 0.9341C7.93844 0.303027 6.95453 0.0324707 5.69582 0.0324707H2.0427C1.91816 0.0324754 1.79771 0.077671 1.703 0.159932C1.60829 0.242193 1.54554 0.356123 1.52602 0.481239L0.00492383 10.2945C-0.0253105 10.488 0.121994 10.6632 0.314807 10.6632H2.57012L3.13653 7.00876L3.11895 7.1232C3.1593 6.86488 3.37649 6.67435 3.63367 6.67435H4.70539C6.81078 6.67435 8.45934 5.80447 8.9409 3.28809C8.9552 3.21366 8.96758 3.14123 8.97828 3.07046C8.9175 3.03772 8.9175 3.03772 8.97828 3.07046C9.12168 2.14038 8.97731 1.50728 8.48274 0.9341Z" fill="#27346A"/>
<path d="M3.99949 2.73541C4.06115 2.70555 4.12859 2.69007 4.19688 2.69011H7.06086C7.4 2.69011 7.71633 2.71256 8.00539 2.75989C8.08628 2.77301 8.16675 2.78867 8.24668 2.80685C8.35998 2.83229 8.47196 2.86341 8.58223 2.90011C8.72434 2.94839 8.85668 3.00462 8.97832 3.07046C9.12168 2.14002 8.97731 1.50728 8.48274 0.9341C7.93813 0.303027 6.95453 0.0324707 5.69582 0.0324707H2.04238C1.78516 0.0324707 1.56633 0.222961 1.52602 0.481239L0.00492404 10.2941C-0.0253103 10.488 0.121994 10.663 0.314494 10.663H2.57012L3.74524 3.0827C3.75679 3.00819 3.78597 2.93765 3.83026 2.87716C3.87455 2.81666 3.93263 2.76802 3.99949 2.73541Z" fill="#27346A"/>
<path d="M8.94112 3.28794C8.45956 5.80397 6.81104 6.67421 4.70561 6.67421H3.63358C3.3764 6.67421 3.15917 6.86474 3.11921 7.12305L2.41456 11.667C2.38823 11.8363 2.51698 11.9898 2.68542 11.9898H4.58659C4.6955 11.9897 4.80082 11.9502 4.88361 11.8782C4.96641 11.8063 5.02125 11.7066 5.03827 11.5972L5.05679 11.4986L5.41511 9.1886L5.43819 9.06093C5.45521 8.95152 5.51004 8.85187 5.59283 8.77991C5.67562 8.70795 5.78093 8.66839 5.88983 8.66835H6.17436C8.01604 8.66835 9.45811 7.90727 9.87952 5.7061C10.0554 4.78623 9.9644 4.01823 9.49909 3.47879C9.35796 3.3154 9.18268 3.18046 8.97851 3.07031C8.96745 3.14144 8.95546 3.21352 8.94112 3.28794Z" fill="#2790C3"/>
<path d="M8.47467 2.86593C8.39958 2.84363 8.32378 2.82388 8.2474 2.80672C8.16743 2.78884 8.08696 2.77328 8.00611 2.76008C7.71674 2.71243 7.40064 2.68994 7.06119 2.68994H4.19756C4.12922 2.68978 4.06173 2.7054 4.00018 2.7356C3.93323 2.7681 3.87509 2.81672 3.83078 2.87723C3.78647 2.93774 3.75733 3.00833 3.74588 3.08288L3.13721 7.00863L3.11963 7.12307C3.15967 6.86475 3.37686 6.67422 3.63408 6.67422H4.70611C6.8115 6.67422 8.46002 5.80434 8.94158 3.28796C8.95592 3.21353 8.96795 3.14141 8.979 3.07033C8.85705 3.00484 8.72506 2.94826 8.58291 2.9003C8.54704 2.8882 8.51097 2.87675 8.47471 2.86593" fill="#1F264F"/>
</g>
<defs>
<clipPath id="clip0_14_545">
<rect width="10" height="12" fill="white"/>
</clipPath>
</defs>
</svg>
