<svg width="21" height="21" viewBox="0 0 21 21" fill="none" xmlns="http://www.w3.org/2000/svg">
<path fill-rule="evenodd" clip-rule="evenodd" d="M15.7651 20.7244C13.745 20.2183 9.60952 18.7915 5.8604 15.0423C2.11129 11.2932 0.684448 7.15771 0.178319 5.13763C-0.112545 3.97671 0.411221 2.85647 1.29934 2.2221L3.62759 0.559061C4.98987 -0.413994 6.88496 -0.0838051 7.83788 1.29263L9.30367 3.40989C9.92588 4.30863 9.71126 5.54043 8.82177 6.17578L7.65299 7.01062C7.82987 7.68723 8.38004 9.07669 10.103 10.7997C11.826 12.5227 13.2155 13.0729 13.8921 13.2498L14.727 12.081C15.3623 11.1915 16.5941 10.9769 17.4929 11.5991L19.6101 13.0649C20.9865 14.0178 21.3167 15.9129 20.3437 17.2752L18.6806 19.6034C18.0463 20.4915 16.926 21.0153 15.7651 20.7244ZM7.27462 13.6281C10.684 17.0375 14.4464 18.3322 16.2512 18.7844C16.515 18.8505 16.8339 18.748 17.0532 18.4409L18.7162 16.1127C19.0406 15.6586 18.9305 15.0269 18.4717 14.7092L16.3544 13.2435L15.4585 14.4977C15.0924 15.0103 14.4153 15.4123 13.6269 15.2422C12.6429 15.0299 10.8239 14.349 8.68883 12.2139C6.55374 10.0788 5.87283 8.25983 5.66052 7.27582C5.49041 6.48743 5.89246 5.81033 6.40503 5.44421L7.65929 4.54831L6.1935 2.43105C5.87586 1.97224 5.24416 1.86218 4.79007 2.18653L2.46181 3.84956C2.15478 4.06888 2.05226 4.38778 2.11835 4.65155C2.57053 6.45631 3.86524 10.2187 7.27462 13.6281Z" fill="#151618"/>
</svg>
